<?xml version="1.0" encoding="UTF-8"?>
<!DOCTYPE svg PUBLIC "-//W3C//DTD SVG 1.1//EN" "http://www.w3.org/Graphics/SVG/1.1/DTD/svg11.dtd">
<svg version="1.2" width="304.8mm" height="304.8mm" viewBox="0 0 30480 30480" preserveAspectRatio="xMidYMid" fill-rule="evenodd" stroke-width="28.222" stroke-linejoin="round" xmlns="http://www.w3.org/2000/svg" xmlns:ooo="http://xml.openoffice.org/svg/export" xmlns:xlink="http://www.w3.org/1999/xlink" xmlns:presentation="http://sun.com/xmlns/staroffice/presentation" xmlns:smil="http://www.w3.org/2001/SMIL20/" xmlns:anim="urn:oasis:names:tc:opendocument:xmlns:animation:1.0" xml:space="preserve">
 <defs class="ClipPathGroup">
  <clipPath id="presentation_clip_path" clipPathUnits="userSpaceOnUse">
   <rect x="0" y="0" width="30480" height="30480"/>
  </clipPath>
  <clipPath id="presentation_clip_path_shrink" clipPathUnits="userSpaceOnUse">
   <rect x="30" y="30" width="30420" height="30420"/>
  </clipPath>
 </defs>
 <defs class="TextShapeIndex">
  <g ooo:slide="id1" ooo:id-list="id3 id4 id5 id6 id7 id8 id9 id10 id11 id12 id13 id14 id15 id16 id17 id18 id19 id20 id21 id22 id23 id24 id25 id26 id27 id28 id29 id30 id31 id32 id33 id34 id35 id36 id37 id38 id39 id40 id41 id42 id43 id44 id45 id46 id47 id48 id49 id50 id51 id52 id53 id54 id55 id56 id57 id58 id59 id60 id61 id62 id63 id64 id65 id66 id67 id68 id69 id70 id71 id72 id73 id74 id75 id76 id77 id78 id79 id80 id81 id82 id83 id84 id85 id86 id87 id88 id89 id90 id91 id92 id93 id94 id95 id96"/>
 </defs>
 <defs class="EmbeddedBulletChars">
  <g id="bullet-char-template-57356" transform="scale(0.00048828125,-0.00048828125)">
   <path d="M 580,1141 L 1163,571 580,0 -4,571 580,1141 Z"/>
  </g>
  <g id="bullet-char-template-57354" transform="scale(0.00048828125,-0.00048828125)">
   <path d="M 8,1128 L 1137,1128 1137,0 8,0 8,1128 Z"/>
  </g>
  <g id="bullet-char-template-10146" transform="scale(0.00048828125,-0.00048828125)">
   <path d="M 174,0 L 602,739 174,1481 1456,739 174,0 Z M 1358,739 L 309,1346 659,739 1358,739 Z"/>
  </g>
  <g id="bullet-char-template-10132" transform="scale(0.00048828125,-0.00048828125)">
   <path d="M 2015,739 L 1276,0 717,0 1260,543 174,543 174,936 1260,936 717,1481 1274,1481 2015,739 Z"/>
  </g>
  <g id="bullet-char-template-10007" transform="scale(0.00048828125,-0.00048828125)">
   <path d="M 0,-2 C -7,14 -16,27 -25,37 L 356,567 C 262,823 215,952 215,954 215,979 228,992 255,992 264,992 276,990 289,987 310,991 331,999 354,1012 L 381,999 492,748 772,1049 836,1024 860,1049 C 881,1039 901,1025 922,1006 886,937 835,863 770,784 769,783 710,716 594,584 L 774,223 C 774,196 753,168 711,139 L 727,119 C 717,90 699,76 672,76 641,76 570,178 457,381 L 164,-76 C 142,-110 111,-127 72,-127 30,-127 9,-110 8,-76 1,-67 -2,-52 -2,-32 -2,-23 -1,-13 0,-2 Z"/>
  </g>
  <g id="bullet-char-template-10004" transform="scale(0.00048828125,-0.00048828125)">
   <path d="M 285,-33 C 182,-33 111,30 74,156 52,228 41,333 41,471 41,549 55,616 82,672 116,743 169,778 240,778 293,778 328,747 346,684 L 369,508 C 377,444 397,411 428,410 L 1163,1116 C 1174,1127 1196,1133 1229,1133 1271,1133 1292,1118 1292,1087 L 1292,965 C 1292,929 1282,901 1262,881 L 442,47 C 390,-6 338,-33 285,-33 Z"/>
  </g>
  <g id="bullet-char-template-9679" transform="scale(0.00048828125,-0.00048828125)">
   <path d="M 813,0 C 632,0 489,54 383,161 276,268 223,411 223,592 223,773 276,916 383,1023 489,1130 632,1184 813,1184 992,1184 1136,1130 1245,1023 1353,916 1407,772 1407,592 1407,412 1353,268 1245,161 1136,54 992,0 813,0 Z"/>
  </g>
  <g id="bullet-char-template-8226" transform="scale(0.00048828125,-0.00048828125)">
   <path d="M 346,457 C 273,457 209,483 155,535 101,586 74,649 74,723 74,796 101,859 155,911 209,963 273,989 346,989 419,989 480,963 531,910 582,859 608,796 608,723 608,648 583,586 532,535 482,483 420,457 346,457 Z"/>
  </g>
  <g id="bullet-char-template-8211" transform="scale(0.00048828125,-0.00048828125)">
   <path d="M -4,459 L 1135,459 1135,606 -4,606 -4,459 Z"/>
  </g>
  <g id="bullet-char-template-61548" transform="scale(0.00048828125,-0.00048828125)">
   <path d="M 173,740 C 173,903 231,1043 346,1159 462,1274 601,1332 765,1332 928,1332 1067,1274 1183,1159 1299,1043 1357,903 1357,740 1357,577 1299,437 1183,322 1067,206 928,148 765,148 601,148 462,206 346,322 231,437 173,577 173,740 Z"/>
  </g>
 </defs>
 <g>
  <g id="id2" class="Master_Slide">
   <g id="bg-id2" class="Background"/>
   <g id="bo-id2" class="BackgroundObjects"/>
  </g>
 </g>
 <g class="SlideGroup">
  <g>
   <g id="container-id1">
    <g id="id1" class="Slide" clip-path="url(#presentation_clip_path)">
     <g class="Page">
      <g class="com.sun.star.drawing.ClosedBezierShape">
       <g id="id3">
        <rect class="BoundingBox" stroke="none" fill="none" x="9459" y="9459" width="11563" height="11563"/>
        <path fill="rgb(13,13,13)" stroke="none" d="M 15240,9590 C 12124,9590 9590,12124 9590,15240 9590,18356 12124,20890 15240,20890 18356,20890 20890,18356 20890,15240 20890,12124 18356,9590 15240,9590 Z M 15240,21021 C 12052,21021 9459,18428 9459,15240 9459,12052 12052,9459 15240,9459 18428,9459 21021,12052 21021,15240 21021,18428 18428,21021 15240,21021 Z"/>
       </g>
      </g>
      <g class="com.sun.star.drawing.ClosedBezierShape">
       <g id="id4">
        <rect class="BoundingBox" stroke="none" fill="none" x="13587" y="12795" width="3309" height="1721"/>
        <path fill="rgb(13,13,13)" stroke="none" d="M 16829,14515 C 16793,14515 16763,14485 16763,14449 16763,13610 16081,12927 15241,12927 14401,12927 13719,13610 13719,14449 13719,14485 13689,14515 13653,14515 13617,14515 13587,14485 13587,14449 13587,13537 14329,12795 15241,12795 16153,12795 16895,13537 16895,14449 16895,14485 16865,14515 16829,14515 Z"/>
       </g>
      </g>
      <g class="com.sun.star.drawing.ClosedBezierShape">
       <g id="id5">
        <rect class="BoundingBox" stroke="none" fill="none" x="6383" y="6383" width="17714" height="17714"/>
        <path fill="rgb(13,13,13)" stroke="none" d="M 15241,6633 C 12942,6633 10780,7528 9154,9154 7528,10780 6633,12942 6633,15240 6633,17540 7528,19701 9154,21327 10780,22952 12942,23847 15241,23847 17540,23847 19701,22952 21327,21327 22952,19701 23847,17540 23847,15240 23847,12942 22952,10780 21327,9154 19701,7528 17540,6633 15241,6633 Z M 15241,24096 C 12875,24096 10651,23175 8979,21502 7305,19830 6384,17606 6384,15240 6384,12875 7305,10651 8979,8979 10651,7305 12875,6384 15241,6384 17606,6384 19830,7305 21502,8979 23175,10651 24096,12875 24096,15240 24096,17606 23175,19830 21502,21502 19830,23175 17606,24096 15241,24096 Z"/>
       </g>
      </g>
      <g class="com.sun.star.drawing.ClosedBezierShape">
       <g id="id6">
        <rect class="BoundingBox" stroke="none" fill="none" x="8415" y="10718" width="1477" height="1489"/>
        <path fill="rgb(13,13,13)" stroke="none" d="M 9268,12205 L 9178,11929 C 9336,11876 9464,11797 9551,11659 9620,11549 9618,11456 9546,11412 L 9543,11410 C 9475,11368 9414,11388 9236,11558 9021,11763 8855,11879 8614,11728 L 8610,11726 C 8390,11589 8355,11321 8510,11072 8620,10895 8770,10779 8945,10718 L 9060,10982 C 8918,11043 8807,11121 8743,11224 8679,11326 8693,11409 8751,11446 L 8755,11448 C 8835,11498 8893,11462 9078,11286 9296,11079 9471,10995 9683,11127 L 9687,11130 C 9928,11281 9948,11549 9785,11811 9670,11995 9489,12140 9268,12205 Z"/>
       </g>
      </g>
      <g class="com.sun.star.drawing.PolyPolygonShape">
       <g id="id7">
        <rect class="BoundingBox" stroke="none" fill="none" x="9654" y="9433" width="1720" height="1281"/>
        <path fill="rgb(13,13,13)" stroke="none" d="M 9654,9643 L 9889,9433 10649,10290 11183,9817 11373,10031 10604,10713 9654,9643 Z"/>
       </g>
      </g>
      <g class="com.sun.star.drawing.ClosedBezierShape">
       <g id="id8">
        <rect class="BoundingBox" stroke="none" fill="none" x="11599" y="7916" width="1522" height="1499"/>
        <path fill="rgb(13,13,13)" stroke="none" d="M 12755,8496 L 12753,8492 C 12655,8268 12408,8152 12176,8254 11944,8356 11863,8610 11962,8835 L 11963,8838 C 12062,9063 12309,9178 12541,9076 12773,8975 12853,8721 12755,8496 Z M 11664,8974 L 11662,8971 C 11499,8598 11659,8163 12063,7986 12467,7809 12890,7983 13054,8357 L 13056,8360 C 13219,8733 13059,9167 12653,9344 12249,9521 11827,9347 11664,8974 Z"/>
       </g>
      </g>
      <g class="com.sun.star.drawing.ClosedBezierShape">
       <g id="id9">
        <rect class="BoundingBox" stroke="none" fill="none" x="15196" y="7347" width="1172" height="1480"/>
        <path fill="rgb(13,13,13)" stroke="none" d="M 15196,8545 L 15399,8338 C 15519,8454 15648,8532 15812,8545 15941,8555 16022,8511 16029,8427 L 16029,8423 C 16035,8343 15990,8299 15755,8219 15474,8122 15295,8027 15317,7744 L 15318,7740 C 15338,7481 15560,7326 15852,7350 16060,7366 16232,7446 16367,7573 L 16186,7797 C 16066,7699 15946,7636 15826,7627 15705,7617 15637,7667 15632,7736 L 15631,7740 C 15624,7834 15683,7869 15925,7952 16208,8051 16363,8169 16343,8417 L 16343,8421 C 16320,8705 16092,8846 15783,8822 15567,8804 15355,8712 15196,8545 Z"/>
       </g>
      </g>
      <g class="com.sun.star.drawing.ClosedBezierShape">
       <g id="id10">
        <rect class="BoundingBox" stroke="none" fill="none" x="17170" y="7722" width="1441" height="1448"/>
        <path fill="rgb(13,13,13)" stroke="none" d="M 17957,8603 C 18105,8662 18225,8609 18271,8495 L 18272,8491 C 18325,8360 18262,8253 18116,8195 L 17889,8104 17726,8510 17957,8603 Z M 17703,7722 L 18246,7940 C 18563,8068 18679,8333 18570,8604 L 18569,8608 C 18445,8915 18142,8978 17844,8859 L 17622,8770 17462,9168 17170,9051 17703,7722 Z"/>
       </g>
      </g>
      <g class="com.sun.star.drawing.PolyPolygonShape">
       <g id="id11">
        <rect class="BoundingBox" stroke="none" fill="none" x="18865" y="9142" width="1625" height="1684"/>
        <path fill="rgb(13,13,13)" stroke="none" d="M 19971,9998 L 20129,9522 19683,9750 19971,9998 Z M 20268,9142 L 20489,9332 20016,10825 19766,10611 19876,10282 19416,9888 19108,10047 18865,9838 20268,9142 Z"/>
       </g>
      </g>
      <g class="com.sun.star.drawing.ClosedBezierShape">
       <g id="id12">
        <rect class="BoundingBox" stroke="none" fill="none" x="20599" y="10804" width="1497" height="1364"/>
        <path fill="rgb(13,13,13)" stroke="none" d="M 20613,11246 L 20900,11287 C 20877,11452 20891,11603 20977,11743 21044,11852 21129,11891 21200,11847 L 21203,11845 C 21271,11803 21280,11740 21207,11503 21118,11220 21088,11019 21330,10870 L 21333,10868 C 21554,10732 21810,10819 21964,11067 22074,11245 22111,11430 22088,11616 L 21801,11602 C 21809,11447 21789,11313 21725,11210 21661,11107 21581,11083 21522,11119 L 21518,11121 C 21438,11171 21444,11239 21520,11483 21609,11770 21606,11964 21394,12095 L 21390,12097 C 21148,12246 20899,12146 20737,11883 20623,11699 20572,11472 20613,11246 Z"/>
       </g>
      </g>
      <g class="com.sun.star.drawing.ClosedBezierShape">
       <g id="id13">
        <rect class="BoundingBox" stroke="none" fill="none" x="7543" y="15590" width="823" height="471"/>
        <path fill="rgb(13,13,13)" stroke="none" d="M 8352,15874 C 8355,15876 8356,15879 8356,15883 L 8365,15985 C 8365,15988 8364,15992 8361,15995 8359,15997 8356,15999 8352,15999 L 7588,16060 C 7584,16060 7581,16059 7578,16056 7575,16054 7574,16051 7573,16047 L 7565,15945 C 7565,15942 7566,15939 7568,15936 7571,15933 7574,15932 7578,15931 L 7898,15906 C 7902,15906 7904,15904 7903,15900 L 7892,15759 C 7892,15756 7890,15754 7886,15754 L 7566,15780 C 7562,15780 7559,15779 7556,15776 7553,15774 7552,15771 7551,15767 L 7543,15665 C 7543,15661 7544,15658 7546,15655 7549,15652 7552,15651 7556,15650 L 8320,15590 C 8323,15590 8327,15591 8330,15593 8332,15595 8334,15598 8334,15602 L 8342,15705 C 8343,15709 8342,15712 8339,15715 8337,15717 8334,15719 8330,15719 L 8012,15744 C 8008,15745 8006,15747 8006,15750 L 8017,15891 C 8018,15895 8020,15896 8024,15896 L 8342,15871 C 8346,15871 8349,15872 8352,15874 Z"/>
       </g>
      </g>
      <g class="com.sun.star.drawing.ClosedBezierShape">
       <g id="id14">
        <rect class="BoundingBox" stroke="none" fill="none" x="7623" y="16186" width="810" height="491"/>
        <path fill="rgb(13,13,13)" stroke="none" d="M 7776,16534 C 7796,16546 7820,16550 7848,16546 L 8235,16482 C 8263,16478 8285,16466 8300,16448 8315,16430 8320,16408 8316,16384 8312,16359 8300,16339 8280,16327 8260,16315 8236,16311 8208,16316 L 7821,16380 C 7793,16385 7771,16396 7756,16414 7741,16432 7735,16453 7739,16478 7743,16503 7756,16521 7776,16534 Z M 7660,16334 C 7693,16289 7742,16262 7806,16251 L 8181,16190 C 8245,16179 8300,16190 8345,16222 8390,16254 8417,16302 8428,16365 8438,16428 8427,16482 8395,16527 8362,16572 8314,16600 8250,16610 L 7874,16672 C 7810,16682 7756,16671 7711,16639 7665,16607 7637,16559 7627,16496 7616,16434 7627,16380 7660,16334 Z"/>
       </g>
      </g>
      <g class="com.sun.star.drawing.ClosedBezierShape">
       <g id="id15">
        <rect class="BoundingBox" stroke="none" fill="none" x="7740" y="16674" width="836" height="458"/>
        <path fill="rgb(13,13,13)" stroke="none" d="M 8572,17098 C 8570,17101 8567,17103 8564,17104 L 8480,17124 C 8476,17125 8473,17124 8470,17123 8467,17121 8465,17118 8464,17114 L 8430,16976 C 8429,16973 8427,16972 8423,16972 L 7781,17130 C 7777,17131 7774,17130 7771,17128 7768,17127 7766,17124 7765,17120 L 7741,17020 C 7740,17016 7740,17013 7742,17010 7744,17007 7747,17005 7751,17004 L 8393,16847 C 8397,16846 8398,16844 8397,16841 L 8366,16711 C 8365,16708 8365,16704 8367,16701 8369,16698 8372,16696 8376,16695 L 8459,16675 C 8463,16674 8466,16674 8469,16676 8473,16678 8475,16681 8476,16684 L 8574,17088 C 8575,17091 8574,17094 8572,17098 Z"/>
       </g>
      </g>
      <g class="com.sun.star.drawing.ClosedBezierShape">
       <g id="id16">
        <rect class="BoundingBox" stroke="none" fill="none" x="7996" y="17450" width="838" height="535"/>
        <path fill="rgb(13,13,13)" stroke="none" d="M 8832,17859 C 8830,17862 8828,17864 8824,17865 L 8743,17896 C 8739,17897 8736,17897 8732,17895 8729,17894 8726,17891 8725,17888 L 8676,17755 C 8675,17751 8672,17750 8669,17751 L 8050,17983 C 8047,17984 8043,17984 8040,17983 8036,17981 8034,17979 8033,17975 L 7997,17879 C 7996,17876 7996,17873 7998,17869 7999,17866 8002,17864 8005,17862 L 8624,17631 C 8627,17630 8629,17627 8627,17624 L 8581,17499 C 8579,17495 8580,17492 8581,17489 8583,17485 8585,17483 8589,17482 L 8670,17452 C 8673,17450 8676,17450 8680,17452 8683,17453 8686,17456 8687,17459 L 8832,17848 C 8834,17852 8833,17855 8832,17859 Z"/>
       </g>
      </g>
      <g class="com.sun.star.drawing.ClosedBezierShape">
       <g id="id17">
        <rect class="BoundingBox" stroke="none" fill="none" x="8213" y="17953" width="836" height="646"/>
        <path fill="rgb(13,13,13)" stroke="none" d="M 8228,18311 C 8250,18259 8293,18218 8355,18189 L 8864,17954 C 8867,17953 8871,17953 8874,17954 8877,17955 8880,17957 8882,17961 L 8924,18053 C 8926,18057 8926,18060 8925,18064 8924,18067 8921,18070 8918,18071 L 8397,18312 C 8369,18325 8350,18343 8339,18364 8328,18385 8328,18407 8338,18429 8348,18451 8365,18465 8389,18471 8412,18476 8437,18473 8465,18460 L 8986,18218 C 8989,18217 8993,18217 8996,18218 9000,18219 9002,18221 9004,18225 L 9047,18317 C 9048,18321 9048,18324 9047,18329 9046,18332 9043,18335 9040,18336 L 8531,18571 C 8469,18600 8411,18606 8356,18588 8302,18571 8262,18534 8235,18477 8209,18419 8206,18364 8228,18311 Z"/>
       </g>
      </g>
      <g class="com.sun.star.drawing.ClosedBezierShape">
       <g id="id18">
        <rect class="BoundingBox" stroke="none" fill="none" x="8437" y="18475" width="820" height="684"/>
        <path fill="rgb(13,13,13)" stroke="none" d="M 9084,18641 L 8901,18746 C 8898,18748 8897,18750 8899,18754 L 8927,18803 C 8942,18829 8962,18845 8986,18851 9011,18856 9039,18850 9069,18833 9100,18815 9120,18794 9129,18770 9138,18745 9135,18719 9120,18692 L 9092,18643 C 9090,18640 9088,18639 9084,18641 Z M 8694,19024 C 8721,19028 8751,19021 8784,19002 8819,18983 8841,18960 8852,18934 8863,18909 8861,18883 8847,18857 L 8815,18801 C 8813,18798 8811,18797 8807,18799 L 8602,18915 C 8599,18917 8598,18919 8600,18923 L 8632,18979 C 8647,19004 8667,19020 8694,19024 Z M 8663,19151 C 8611,19135 8569,19099 8536,19044 L 8440,18874 C 8438,18871 8438,18867 8439,18864 8440,18860 8442,18857 8445,18856 L 9112,18477 C 9116,18475 9119,18475 9123,18476 9126,18477 9129,18479 9131,18482 L 9217,18635 C 9252,18696 9263,18754 9251,18806 9240,18859 9203,18902 9143,18937 9075,18975 9014,18979 8958,18948 8954,18946 8952,18947 8951,18950 8949,18984 8938,19016 8919,19046 8899,19076 8870,19101 8832,19123 8772,19157 8715,19166 8663,19151 Z"/>
       </g>
      </g>
      <g class="com.sun.star.drawing.ClosedBezierShape">
       <g id="id19">
        <rect class="BoundingBox" stroke="none" fill="none" x="8800" y="18997" width="750" height="648"/>
        <path fill="rgb(13,13,13)" stroke="none" d="M 8804,19394 C 8814,19342 8845,19299 8895,19265 L 8921,19247 C 8924,19245 8928,19244 8931,19245 8935,19246 8938,19247 8940,19251 L 8996,19333 C 8998,19336 8998,19340 8998,19343 8997,19347 8995,19350 8992,19352 L 8971,19366 C 8947,19382 8931,19402 8924,19424 8918,19447 8920,19467 8933,19485 8946,19504 8963,19515 8986,19518 9008,19521 9031,19514 9054,19499 9069,19488 9081,19476 9089,19461 9096,19446 9102,19429 9104,19409 9107,19390 9109,19360 9111,19320 9113,19274 9116,19236 9121,19205 9126,19175 9137,19145 9153,19116 9169,19087 9193,19061 9226,19039 9278,19004 9330,18990 9382,19001 9433,19012 9476,19041 9509,19091 9544,19143 9556,19195 9545,19248 9533,19301 9501,19345 9448,19381 L 9425,19396 C 9422,19398 9419,19399 9415,19399 9412,19398 9409,19396 9407,19393 L 9350,19309 C 9348,19306 9348,19303 9348,19299 9349,19295 9351,19293 9354,19291 L 9379,19274 C 9403,19258 9419,19239 9425,19217 9432,19195 9429,19174 9415,19154 9403,19137 9387,19126 9365,19124 9344,19121 9321,19128 9297,19144 9274,19159 9259,19178 9252,19201 9245,19225 9240,19264 9237,19319 9234,19376 9229,19420 9225,19451 9220,19481 9211,19509 9196,19534 9182,19559 9160,19581 9131,19601 9078,19637 9024,19651 8971,19640 8917,19630 8873,19600 8839,19549 8805,19498 8793,19447 8804,19394 Z"/>
       </g>
      </g>
      <g class="com.sun.star.drawing.ClosedBezierShape">
       <g id="id20">
        <rect class="BoundingBox" stroke="none" fill="none" x="9501" y="19874" width="274" height="294"/>
        <path fill="rgb(13,13,13)" stroke="none" d="M 9502,19944 C 9503,19941 9504,19938 9507,19935 L 9572,19878 C 9575,19876 9579,19875 9582,19875 9587,19875 9590,19877 9592,19879 L 9770,20089 C 9773,20092 9774,20095 9774,20099 9773,20102 9772,20105 9769,20108 L 9703,20164 C 9700,20166 9697,20167 9694,20167 9690,20167 9687,20165 9684,20162 L 9505,19954 C 9503,19951 9502,19948 9502,19944 Z"/>
       </g>
      </g>
      <g class="com.sun.star.drawing.ClosedBezierShape">
       <g id="id21">
        <rect class="BoundingBox" stroke="none" fill="none" x="9900" y="20218" width="691" height="717"/>
        <path fill="rgb(13,13,13)" stroke="none" d="M 9900,20731 C 9899,20677 9918,20629 9960,20585 L 9982,20561 C 9985,20559 9988,20557 9992,20557 9996,20557 9999,20558 10001,20561 L 10074,20629 C 10077,20631 10078,20635 10078,20638 10079,20642 10077,20645 10075,20648 L 10058,20666 C 10038,20688 10027,20710 10025,20733 10024,20757 10031,20776 10047,20791 10064,20807 10083,20813 10106,20811 10128,20809 10149,20798 10168,20777 10181,20763 10189,20748 10194,20732 10198,20716 10199,20698 10197,20679 10195,20660 10191,20630 10184,20590 10175,20545 10170,20507 10168,20476 10166,20445 10170,20414 10179,20382 10188,20350 10206,20318 10233,20290 10276,20244 10324,20220 10376,20218 10428,20217 10476,20236 10520,20277 10565,20320 10588,20369 10589,20423 10590,20478 10569,20528 10525,20575 L 10506,20595 C 10504,20597 10501,20599 10497,20599 10493,20599 10490,20598 10487,20595 L 10414,20526 C 10411,20524 10410,20521 10410,20517 10409,20513 10411,20510 10413,20507 L 10433,20486 C 10454,20464 10464,20442 10466,20419 10468,20397 10460,20377 10443,20361 10427,20346 10408,20340 10387,20342 10366,20345 10345,20356 10326,20377 10307,20397 10297,20419 10295,20443 10293,20467 10297,20507 10307,20561 10316,20617 10322,20661 10324,20692 10326,20723 10323,20752 10315,20780 10306,20807 10290,20834 10266,20860 10222,20906 10173,20931 10118,20933 10064,20936 10014,20916 9969,20874 9924,20832 9901,20785 9900,20731 Z"/>
       </g>
      </g>
      <g class="com.sun.star.drawing.ClosedBezierShape">
       <g id="id22">
        <rect class="BoundingBox" stroke="none" fill="none" x="10249" y="20601" width="732" height="807"/>
        <path fill="rgb(13,13,13)" stroke="none" d="M 10534,21036 L 10630,21112 C 10633,21115 10636,21114 10638,21111 L 10804,20806 C 10804,20804 10804,20802 10803,20801 10802,20800 10800,20800 10798,20802 L 10534,21028 C 10531,21031 10531,21034 10534,21036 Z M 10523,21320 L 10582,21213 C 10584,21210 10584,21207 10580,21204 L 10454,21104 C 10450,21101 10447,21101 10446,21103 L 10353,21183 C 10348,21189 10341,21189 10334,21184 L 10254,21120 C 10247,21114 10247,21108 10255,21101 L 10861,20605 C 10868,20600 10874,20600 10881,20605 L 10973,20679 C 10980,20684 10981,20690 10977,20698 L 10627,21399 10624,21403 C 10620,21408 10615,21408 10608,21403 L 10527,21339 C 10520,21333 10519,21327 10523,21320 Z"/>
       </g>
      </g>
      <g class="com.sun.star.drawing.ClosedBezierShape">
       <g id="id23">
        <rect class="BoundingBox" stroke="none" fill="none" x="10820" y="20853" width="716" height="817"/>
        <path fill="rgb(13,13,13)" stroke="none" d="M 10823,21491 C 10815,21435 10831,21378 10869,21322 L 11184,20859 C 11186,20856 11189,20854 11193,20853 11196,20852 11200,20853 11203,20855 L 11287,20912 C 11290,20914 11292,20917 11293,20921 11294,20924 11293,20928 11291,20931 L 10968,21405 C 10951,21430 10943,21455 10945,21478 10947,21502 10958,21521 10978,21535 10998,21549 11020,21552 11043,21545 11066,21537 11086,21521 11103,21496 L 11425,21022 C 11427,21019 11430,21017 11433,21016 11437,21015 11440,21016 11443,21018 L 11528,21075 C 11531,21077 11533,21080 11534,21084 11534,21088 11533,21091 11531,21094 L 11217,21557 C 11179,21615 11132,21650 11076,21663 11020,21676 10966,21665 10914,21630 10862,21594 10831,21547 10823,21491 Z"/>
       </g>
      </g>
      <g class="com.sun.star.drawing.ClosedBezierShape">
       <g id="id24">
        <rect class="BoundingBox" stroke="none" fill="none" x="11270" y="21161" width="768" height="901"/>
        <path fill="rgb(13,13,13)" stroke="none" d="M 11272,21845 C 11271,21842 11271,21839 11273,21835 L 11649,21169 C 11651,21165 11654,21163 11658,21162 11661,21161 11665,21161 11668,21163 L 11761,21216 C 11768,21220 11770,21225 11769,21232 L 11692,21718 C 11693,21721 11693,21722 11695,21723 11696,21724 11697,21723 11699,21720 L 11924,21323 C 11926,21320 11929,21317 11932,21316 11936,21315 11939,21316 11942,21318 L 12030,21367 C 12033,21369 12036,21372 12036,21375 12037,21379 12037,21382 12035,21386 L 11658,22053 C 11656,22057 11653,22059 11650,22060 11646,22061 11643,22060 11640,22059 L 11546,22006 C 11539,22002 11536,21996 11537,21989 L 11614,21501 C 11614,21498 11614,21497 11612,21496 11610,21496 11608,21496 11607,21498 L 11383,21897 C 11382,21901 11379,21903 11375,21904 11372,21905 11368,21904 11365,21903 L 11278,21854 C 11275,21852 11273,21849 11272,21845 Z"/>
       </g>
      </g>
      <g class="com.sun.star.drawing.ClosedBezierShape">
       <g id="id25">
        <rect class="BoundingBox" stroke="none" fill="none" x="11800" y="21493" width="611" height="845"/>
        <path fill="rgb(13,13,13)" stroke="none" d="M 12061,21997 L 12171,22047 C 12175,22049 12178,22048 12178,22044 L 12266,21708 C 12267,21706 12266,21704 12265,21704 12263,21703 12262,21704 12260,21706 L 12059,21989 C 12056,21992 12057,21995 12061,21997 Z M 12118,22273 L 12149,22157 C 12150,22153 12149,22151 12145,22149 L 11999,22081 C 11995,22079 11992,22080 11991,22083 L 11920,22182 C 11916,22189 11910,22191 11902,22188 L 11808,22145 C 11800,22141 11798,22135 11805,22127 L 12274,21500 C 12279,21493 12285,21491 12293,21495 L 12401,21545 C 12408,21548 12411,21554 12408,21562 L 12237,22327 12235,22331 C 12232,22337 12227,22338 12220,22335 L 12126,22291 C 12118,22287 12115,22281 12118,22273 Z"/>
       </g>
      </g>
      <g class="com.sun.star.drawing.ClosedBezierShape">
       <g id="id26">
        <rect class="BoundingBox" stroke="none" fill="none" x="12437" y="21704" width="552" height="796"/>
        <path fill="rgb(13,13,13)" stroke="none" d="M 12455,22378 C 12433,22329 12432,22276 12453,22219 L 12464,22190 C 12466,22186 12468,22184 12471,22182 12475,22180 12478,22180 12482,22181 L 12575,22216 C 12579,22217 12581,22220 12583,22223 12584,22226 12584,22230 12583,22233 L 12574,22257 C 12564,22284 12563,22309 12571,22331 12578,22353 12592,22368 12613,22376 12635,22384 12655,22383 12675,22372 12695,22361 12710,22342 12719,22316 12726,22299 12728,22281 12725,22265 12723,22248 12717,22231 12708,22214 12699,22197 12683,22172 12661,22138 12636,22100 12616,22067 12602,22039 12588,22011 12579,21981 12575,21948 12572,21914 12576,21879 12590,21843 12612,21784 12646,21742 12694,21720 12741,21699 12793,21698 12849,21719 12909,21740 12949,21776 12971,21826 12993,21876 12993,21931 12970,21991 L 12961,22016 C 12960,22020 12957,22023 12954,22024 12951,22026 12947,22026 12944,22025 L 12848,21990 C 12845,21988 12842,21986 12841,21983 12839,21979 12839,21976 12840,21972 L 12850,21945 C 12862,21917 12863,21892 12856,21871 12847,21849 12832,21834 12810,21826 12790,21819 12771,21820 12752,21830 12733,21841 12719,21859 12709,21886 12699,21912 12698,21936 12706,21959 12714,21982 12733,22017 12763,22063 12793,22111 12815,22149 12830,22177 12844,22205 12852,22233 12856,22261 12859,22290 12854,22321 12841,22354 12819,22414 12783,22456 12734,22479 12685,22503 12632,22504 12574,22482 12517,22461 12478,22426 12455,22378 Z"/>
       </g>
      </g>
      <g class="com.sun.star.drawing.ClosedBezierShape">
       <g id="id27">
        <rect class="BoundingBox" stroke="none" fill="none" x="13318" y="22303" width="317" height="180"/>
        <path fill="rgb(13,13,13)" stroke="none" d="M 13321,22408 C 13319,22405 13319,22402 13320,22398 L 13340,22314 C 13341,22311 13343,22308 13346,22306 13350,22304 13353,22303 13357,22304 L 13624,22370 C 13627,22371 13630,22373 13632,22376 13634,22379 13634,22382 13633,22386 L 13612,22471 C 13611,22474 13609,22477 13606,22479 13603,22481 13599,22482 13596,22481 L 13330,22414 C 13326,22413 13323,22411 13321,22408 Z"/>
       </g>
      </g>
      <g class="com.sun.star.drawing.ClosedBezierShape">
       <g id="id28">
        <rect class="BoundingBox" stroke="none" fill="none" x="13996" y="22075" width="463" height="812"/>
        <path fill="rgb(13,13,13)" stroke="none" d="M 14035,22805 C 14002,22762 13990,22711 13999,22651 L 14003,22620 C 14004,22616 14005,22613 14008,22611 14011,22608 14014,22607 14018,22608 L 14118,22622 C 14122,22622 14125,22624 14127,22627 14129,22630 14130,22633 14129,22637 L 14126,22662 C 14122,22691 14126,22715 14138,22735 14150,22755 14167,22767 14189,22770 14212,22773 14232,22767 14249,22752 14266,22738 14276,22716 14280,22689 14283,22670 14281,22653 14275,22637 14269,22622 14260,22606 14247,22592 14235,22577 14214,22555 14185,22527 14152,22495 14126,22467 14106,22443 14087,22419 14072,22391 14061,22359 14050,22328 14047,22293 14053,22254 14061,22191 14086,22144 14128,22112 14170,22081 14220,22069 14280,22077 14341,22086 14388,22112 14420,22156 14452,22199 14464,22254 14455,22318 L 14451,22344 C 14451,22348 14449,22351 14446,22353 14443,22356 14440,22357 14436,22356 L 14336,22342 C 14332,22342 14330,22340 14327,22337 14325,22334 14324,22331 14325,22327 L 14329,22298 C 14333,22269 14329,22244 14317,22225 14305,22204 14288,22193 14264,22189 14243,22186 14224,22192 14208,22206 14192,22220 14182,22243 14178,22271 14174,22298 14179,22322 14191,22343 14203,22363 14229,22393 14269,22432 14309,22473 14338,22505 14358,22529 14378,22553 14392,22579 14401,22606 14410,22633 14412,22664 14407,22700 14399,22763 14373,22812 14330,22845 14286,22878 14235,22891 14174,22882 14114,22874 14067,22848 14035,22805 Z"/>
       </g>
      </g>
      <g class="com.sun.star.drawing.ClosedBezierShape">
       <g id="id29">
        <rect class="BoundingBox" stroke="none" fill="none" x="14562" y="22129" width="689" height="819"/>
        <path fill="rgb(13,13,13)" stroke="none" d="M 14674,22916 L 14563,22143 14562,22139 C 14562,22132 14566,22129 14575,22129 L 14681,22134 C 14690,22134 14694,22139 14695,22147 L 14751,22623 C 14752,22626 14753,22627 14754,22627 14756,22627 14757,22626 14758,22624 L 14850,22154 C 14851,22146 14856,22142 14865,22143 L 14953,22147 C 14962,22147 14967,22152 14967,22160 L 15020,22636 C 15021,22639 15022,22640 15023,22640 15025,22640 15026,22639 15027,22637 L 15119,22167 C 15120,22159 15125,22155 15134,22155 L 15237,22160 C 15247,22161 15251,22166 15249,22176 L 15072,22935 C 15071,22943 15066,22947 15057,22946 L 14962,22942 C 14954,22941 14949,22937 14949,22929 L 14897,22445 C 14897,22441 14896,22439 14894,22439 14893,22439 14891,22441 14891,22444 L 14799,22922 C 14798,22930 14793,22934 14784,22933 L 14688,22929 C 14679,22928 14674,22924 14674,22916 Z"/>
       </g>
      </g>
      <g class="com.sun.star.drawing.ClosedBezierShape">
       <g id="id30">
        <rect class="BoundingBox" stroke="none" fill="none" x="15369" y="22148" width="152" height="798"/>
        <path fill="rgb(13,13,13)" stroke="none" d="M 15394,22941 C 15392,22938 15390,22935 15390,22931 L 15369,22165 C 15369,22162 15370,22158 15373,22156 15375,22153 15378,22151 15382,22151 L 15485,22148 C 15489,22148 15492,22150 15495,22152 15497,22155 15499,22158 15499,22162 L 15520,22928 C 15520,22932 15519,22935 15516,22938 15514,22940 15511,22942 15507,22942 L 15404,22945 C 15400,22945 15397,22943 15394,22941 Z"/>
       </g>
      </g>
      <g class="com.sun.star.drawing.ClosedBezierShape">
       <g id="id31">
        <rect class="BoundingBox" stroke="none" fill="none" x="15654" y="22101" width="551" height="834"/>
        <path fill="rgb(13,13,13)" stroke="none" d="M 15730,22930 C 15727,22928 15726,22925 15725,22921 L 15654,22158 C 15654,22154 15655,22151 15657,22148 15659,22145 15662,22144 15666,22143 L 15767,22134 C 15774,22133 15779,22136 15783,22143 L 15912,22376 C 15915,22381 15917,22380 15919,22376 L 16001,22122 C 16003,22115 16008,22111 16015,22111 L 16117,22101 C 16121,22101 16124,22102 16127,22104 16129,22107 16131,22110 16131,22113 L 16204,22877 C 16204,22880 16203,22884 16201,22887 16198,22889 16195,22891 16192,22891 L 16089,22901 C 16085,22901 16082,22900 16079,22898 16076,22895 16075,22892 16074,22889 L 16029,22396 C 16028,22393 16027,22392 16026,22392 16024,22392 16023,22393 16022,22396 L 15945,22602 C 15943,22609 15940,22612 15937,22613 15935,22613 15932,22610 15928,22603 L 15814,22413 C 15812,22411 15811,22410 15809,22410 15808,22411 15807,22413 15807,22416 L 15853,22909 C 15854,22913 15853,22916 15850,22919 15848,22922 15845,22924 15841,22924 L 15740,22934 C 15736,22934 15733,22933 15730,22930 Z"/>
       </g>
      </g>
      <g class="com.sun.star.drawing.ClosedBezierShape">
       <g id="id32">
        <rect class="BoundingBox" stroke="none" fill="none" x="16517" y="21988" width="500" height="806"/>
        <path fill="rgb(13,13,13)" stroke="none" d="M 16695,22762 C 16649,22732 16620,22688 16608,22629 L 16601,22598 C 16601,22594 16601,22591 16603,22587 16605,22584 16608,22582 16612,22582 L 16710,22561 C 16714,22560 16717,22561 16720,22563 16723,22565 16725,22568 16726,22571 L 16731,22596 C 16737,22625 16750,22646 16768,22661 16786,22676 16806,22681 16828,22676 16850,22671 16867,22659 16878,22640 16889,22620 16891,22596 16886,22569 16882,22551 16874,22535 16863,22522 16852,22509 16838,22498 16822,22489 16805,22479 16778,22466 16741,22449 16699,22430 16665,22413 16638,22397 16611,22381 16587,22360 16566,22334 16545,22308 16531,22275 16523,22237 16510,22176 16518,22123 16546,22078 16575,22034 16618,22006 16678,21994 16739,21981 16791,21990 16836,22020 16881,22050 16911,22098 16924,22160 L 16929,22187 C 16930,22191 16930,22194 16928,22197 16926,22200 16923,22202 16919,22203 L 16820,22224 C 16817,22225 16813,22224 16810,22222 16807,22220 16805,22217 16805,22213 L 16799,22185 C 16792,22156 16780,22134 16763,22120 16745,22106 16724,22101 16701,22106 16680,22110 16665,22122 16654,22141 16643,22159 16641,22183 16646,22211 16653,22237 16665,22258 16684,22274 16703,22289 16737,22308 16788,22332 16839,22356 16878,22377 16905,22392 16932,22408 16954,22428 16972,22450 16989,22473 17002,22501 17009,22536 17022,22599 17014,22653 16985,22699 16956,22745 16911,22774 16851,22787 16792,22799 16740,22791 16695,22762 Z"/>
       </g>
      </g>
      <g class="com.sun.star.drawing.ClosedBezierShape">
       <g id="id33">
        <rect class="BoundingBox" stroke="none" fill="none" x="17007" y="21855" width="482" height="833"/>
        <path fill="rgb(13,13,13)" stroke="none" d="M 17352,22164 C 17362,22139 17361,22109 17351,22073 17340,22037 17324,22010 17302,21994 17279,21977 17255,21973 17229,21980 L 17165,21999 C 17161,22000 17160,22002 17161,22006 L 17227,22229 C 17228,22232 17230,22234 17234,22233 L 17297,22214 C 17324,22206 17342,22190 17352,22164 Z M 17325,21864 C 17359,21874 17389,21894 17415,21923 17441,21953 17461,21990 17473,22034 17494,22099 17492,22156 17469,22206 17447,22256 17408,22289 17353,22305 L 17263,22331 C 17259,22333 17258,22335 17259,22338 L 17348,22641 C 17349,22644 17348,22648 17347,22651 17345,22654 17342,22656 17339,22657 L 17241,22686 C 17237,22687 17234,22687 17230,22685 17227,22683 17225,22680 17224,22677 L 17008,21940 C 17007,21937 17007,21933 17009,21930 17011,21927 17013,21924 17017,21923 L 17217,21865 C 17255,21854 17291,21853 17325,21864 Z"/>
       </g>
      </g>
      <g class="com.sun.star.drawing.ClosedBezierShape">
       <g id="id34">
        <rect class="BoundingBox" stroke="none" fill="none" x="17619" y="21685" width="569" height="847"/>
        <path fill="rgb(13,13,13)" stroke="none" d="M 17826,22245 L 17939,22202 C 17944,22200 17945,22198 17943,22194 L 17763,21896 C 17762,21894 17761,21894 17759,21894 17758,21895 17757,21896 17757,21899 L 17819,22241 C 17820,22245 17822,22246 17826,22245 Z M 18064,22399 L 18002,22294 C 18000,22291 17998,22290 17994,22291 L 17843,22348 C 17839,22350 17837,22352 17838,22355 L 17860,22476 C 17862,22484 17859,22490 17851,22493 L 17755,22529 C 17746,22532 17740,22529 17739,22519 L 17621,21744 C 17619,21736 17622,21731 17630,21728 L 17741,21686 C 17748,21683 17754,21685 17759,21692 L 18184,22350 18186,22354 C 18188,22361 18186,22366 18178,22369 L 18081,22406 C 18073,22409 18067,22407 18064,22399 Z"/>
       </g>
      </g>
      <g class="com.sun.star.drawing.ClosedBezierShape">
       <g id="id35">
        <rect class="BoundingBox" stroke="none" fill="none" x="18042" y="21474" width="591" height="780"/>
        <path fill="rgb(13,13,13)" stroke="none" d="M 18352,22241 C 18301,22222 18263,22186 18238,22130 L 18224,22101 C 18223,22098 18223,22094 18224,22091 18225,22087 18227,22085 18231,22083 L 18321,22041 C 18325,22039 18328,22039 18331,22041 18335,22042 18337,22044 18339,22048 L 18350,22070 C 18362,22097 18379,22115 18400,22125 18421,22135 18442,22136 18462,22126 18482,22117 18496,22101 18502,22079 18508,22058 18505,22034 18494,22009 18486,21992 18475,21978 18461,21969 18448,21959 18432,21951 18413,21945 18395,21940 18365,21933 18326,21925 18281,21916 18244,21907 18214,21897 18185,21888 18157,21873 18130,21852 18104,21831 18083,21803 18066,21768 18039,21711 18035,21658 18053,21609 18071,21560 18107,21522 18161,21497 18217,21471 18271,21467 18321,21486 18372,21506 18411,21544 18438,21602 L 18450,21627 C 18451,21630 18451,21634 18450,21637 18449,21641 18447,21643 18443,21645 L 18352,21688 C 18349,21689 18345,21689 18342,21688 18338,21687 18336,21685 18334,21681 L 18322,21654 C 18309,21628 18293,21609 18272,21599 18251,21590 18230,21590 18209,21600 18190,21609 18177,21624 18171,21644 18165,21665 18168,21688 18181,21714 18192,21739 18209,21756 18230,21767 18252,21778 18290,21789 18344,21800 18400,21812 18443,21823 18472,21833 18502,21842 18529,21856 18551,21874 18574,21892 18592,21917 18607,21949 18635,22007 18639,22062 18621,22113 18603,22165 18566,22204 18510,22230 18455,22256 18402,22259 18352,22241 Z"/>
       </g>
      </g>
      <g class="com.sun.star.drawing.ClosedBezierShape">
       <g id="id36">
        <rect class="BoundingBox" stroke="none" fill="none" x="18889" y="21427" width="309" height="245"/>
        <path fill="rgb(13,13,13)" stroke="none" d="M 18943,21670 C 18940,21669 18937,21667 18935,21664 L 18891,21589 C 18889,21586 18888,21583 18889,21579 18890,21576 18892,21573 18895,21571 L 19131,21429 C 19134,21427 19137,21427 19141,21428 19144,21429 19147,21431 19149,21434 L 19194,21507 C 19196,21511 19196,21514 19195,21518 19194,21521 19192,21524 19189,21526 L 18954,21669 C 18950,21671 18947,21671 18943,21670 Z"/>
       </g>
      </g>
      <g class="com.sun.star.drawing.ClosedBezierShape">
       <g id="id37">
        <rect class="BoundingBox" stroke="none" fill="none" x="19379" y="20649" width="672" height="743"/>
        <path fill="rgb(13,13,13)" stroke="none" d="M 19807,21388 C 19753,21381 19706,21352 19666,21301 L 19430,20995 C 19390,20944 19374,20891 19380,20838 19387,20784 19415,20738 19465,20700 19515,20661 19567,20645 19621,20651 19675,20658 19722,20687 19762,20738 L 19771,20749 C 19773,20752 19774,20755 19774,20759 19774,20763 19772,20766 19769,20769 L 19689,20835 C 19682,20841 19676,20840 19671,20833 L 19653,20810 C 19637,20790 19618,20777 19596,20773 19574,20769 19554,20774 19534,20789 19516,20804 19506,20822 19504,20844 19503,20867 19510,20888 19526,20909 L 19775,21230 C 19792,21251 19811,21264 19832,21268 19854,21272 19875,21267 19893,21252 19913,21237 19923,21219 19924,21197 19926,21174 19919,21153 19902,21132 L 19885,21110 C 19883,21107 19882,21103 19882,21100 19883,21096 19884,21093 19887,21091 L 19972,21030 C 19975,21028 19978,21027 19982,21027 19985,21028 19988,21030 19991,21033 L 19999,21043 C 20038,21095 20055,21148 20048,21202 20041,21256 20013,21303 19963,21342 19913,21380 19861,21396 19807,21388 Z"/>
       </g>
      </g>
      <g class="com.sun.star.drawing.ClosedBezierShape">
       <g id="id38">
        <rect class="BoundingBox" stroke="none" fill="none" x="19806" y="20290" width="698" height="723"/>
        <path fill="rgb(13,13,13)" stroke="none" d="M 20377,20807 C 20377,20783 20367,20761 20348,20740 L 20084,20449 C 20065,20428 20044,20416 20020,20413 19997,20410 19976,20417 19957,20434 19939,20451 19930,20471 19930,20495 19931,20518 19941,20541 19960,20563 L 20224,20852 C 20243,20874 20264,20886 20288,20889 20311,20892 20332,20885 20350,20868 20369,20851 20378,20831 20377,20807 Z M 20273,21011 C 20218,21008 20168,20983 20125,20935 L 19869,20653 C 19825,20605 19805,20554 19807,20497 19809,20442 19834,20393 19881,20350 19928,20308 19979,20288 20035,20290 20090,20293 20140,20318 20183,20366 L 20439,20649 C 20484,20697 20504,20749 20502,20804 20499,20860 20473,20909 20426,20951 20379,20994 20328,21014 20273,21011 Z"/>
       </g>
      </g>
      <g class="com.sun.star.drawing.ClosedBezierShape">
       <g id="id39">
        <rect class="BoundingBox" stroke="none" fill="none" x="20149" y="20026" width="834" height="630"/>
        <path fill="rgb(13,13,13)" stroke="none" d="M 20721,20655 C 20717,20655 20714,20654 20711,20651 L 20154,20124 C 20151,20121 20150,20118 20150,20114 20149,20111 20151,20107 20153,20105 L 20223,20031 C 20226,20028 20229,20027 20233,20026 20236,20026 20240,20028 20242,20030 L 20723,20485 C 20726,20488 20728,20488 20731,20485 L 20896,20310 C 20898,20307 20901,20306 20905,20306 20909,20306 20912,20307 20915,20309 L 20977,20369 C 20980,20371 20981,20374 20981,20379 20982,20383 20980,20386 20978,20389 L 20730,20651 C 20727,20653 20724,20655 20721,20655 Z"/>
       </g>
      </g>
      <g class="com.sun.star.drawing.ClosedBezierShape">
       <g id="id40">
        <rect class="BoundingBox" stroke="none" fill="none" x="20486" y="19512" width="792" height="737"/>
        <path fill="rgb(13,13,13)" stroke="none" d="M 21094,20076 L 21135,20024 C 21150,20005 21155,19983 21149,19959 21143,19935 21127,19912 21102,19890 L 20834,19673 C 20807,19652 20782,19640 20757,19640 20731,19639 20711,19648 20694,19668 L 20653,19719 C 20651,19722 20651,19725 20654,19727 L 21086,20077 C 21089,20079 21091,20079 21094,20076 Z M 21096,20247 C 21093,20248 21089,20247 21086,20244 L 20491,19761 C 20488,19758 20487,19755 20486,19752 20486,19748 20487,19745 20489,19742 L 20609,19595 C 20649,19545 20696,19518 20751,19513 20805,19508 20858,19527 20910,19568 L 21189,19795 C 21240,19837 21269,19884 21275,19939 21282,19993 21265,20045 21225,20094 L 21105,20243 C 21103,20246 21100,20247 21096,20247 Z"/>
       </g>
      </g>
      <g class="com.sun.star.drawing.ClosedBezierShape">
       <g id="id41">
        <rect class="BoundingBox" stroke="none" fill="none" x="21019" y="18765" width="735" height="695"/>
        <path fill="rgb(13,13,13)" stroke="none" d="M 21430,18988 C 21420,18963 21400,18940 21368,18921 21336,18901 21306,18892 21279,18895 21251,18897 21230,18910 21216,18933 L 21180,18990 C 21179,18993 21179,18995 21182,18997 L 21380,19121 C 21383,19123 21385,19122 21387,19119 L 21422,19062 C 21437,19039 21439,19014 21430,18988 Z M 21210,18783 C 21243,18768 21278,18762 21317,18767 21356,18772 21395,18786 21433,18810 21491,18846 21528,18889 21545,18941 21562,18993 21555,19044 21525,19093 L 21475,19173 C 21473,19177 21474,19179 21477,19181 L 21745,19347 C 21748,19349 21751,19352 21751,19355 21752,19359 21752,19362 21750,19366 L 21696,19452 C 21694,19455 21691,19457 21688,19458 21684,19459 21681,19458 21677,19456 L 21025,19052 C 21022,19050 21020,19047 21019,19044 21018,19040 21019,19037 21020,19034 L 21131,18855 C 21151,18822 21178,18798 21210,18783 Z"/>
       </g>
      </g>
      <g class="com.sun.star.drawing.ClosedBezierShape">
       <g id="id42">
        <rect class="BoundingBox" stroke="none" fill="none" x="21301" y="18470" width="876" height="474"/>
        <path fill="rgb(13,13,13)" stroke="none" d="M 21998,18942 C 21995,18943 21991,18942 21988,18941 L 21308,18586 C 21305,18584 21303,18582 21301,18578 21300,18575 21301,18571 21302,18568 L 21349,18477 C 21351,18474 21354,18472 21357,18471 21361,18470 21365,18470 21369,18472 L 21954,18778 C 21957,18780 21960,18779 21962,18776 L 22072,18562 C 22074,18559 22077,18557 22080,18555 22084,18554 22087,18555 22091,18556 L 22167,18596 C 22170,18598 22173,18601 22174,18604 22175,18609 22175,18612 22173,18615 L 22006,18935 C 22004,18938 22002,18941 21998,18942 Z"/>
       </g>
      </g>
      <g class="com.sun.star.drawing.ClosedBezierShape">
       <g id="id43">
        <rect class="BoundingBox" stroke="none" fill="none" x="21514" y="17782" width="837" height="634"/>
        <path fill="rgb(13,13,13)" stroke="none" d="M 22213,18404 C 22159,18423 22099,18418 22036,18391 L 21523,18170 C 21520,18169 21517,18166 21516,18163 21514,18159 21514,18156 21516,18153 L 21555,18059 C 21557,18055 21560,18053 21564,18052 21567,18050 21570,18050 21574,18052 L 22100,18278 C 22129,18290 22153,18293 22177,18287 22200,18281 22216,18267 22226,18244 22236,18222 22235,18200 22223,18179 22212,18158 22193,18141 22165,18130 L 21638,17902 C 21635,17901 21631,17898 21630,17895 21628,17891 21628,17888 21630,17884 L 21670,17791 C 21672,17787 21674,17785 21678,17784 21681,17782 21684,17782 21688,17784 L 22203,18006 C 22266,18033 22309,18073 22332,18125 22356,18176 22356,18231 22331,18289 22306,18348 22266,18386 22213,18404 Z"/>
       </g>
      </g>
      <g class="com.sun.star.drawing.ClosedBezierShape">
       <g id="id44">
        <rect class="BoundingBox" stroke="none" fill="none" x="21729" y="17233" width="887" height="666"/>
        <path fill="rgb(13,13,13)" stroke="none" d="M 22474,17896 C 22471,17898 22468,17898 22464,17897 L 21738,17654 C 21735,17652 21732,17650 21730,17647 21729,17644 21728,17640 21730,17637 L 21763,17535 C 21766,17527 21771,17523 21778,17523 L 22270,17507 C 22272,17506 22274,17505 22274,17503 22275,17502 22274,17501 22271,17500 L 21838,17355 C 21834,17354 21832,17351 21830,17348 21828,17345 21828,17341 21829,17338 L 21862,17242 C 21863,17239 21865,17236 21868,17234 21872,17233 21875,17233 21879,17234 L 22605,17477 C 22609,17478 22612,17481 22613,17484 22615,17487 22615,17491 22614,17494 L 22580,17597 C 22577,17605 22572,17609 22565,17609 L 22071,17626 C 22069,17626 22067,17627 22067,17629 22067,17631 22068,17632 22070,17633 L 22504,17777 C 22508,17778 22510,17780 22512,17784 22514,17787 22514,17790 22513,17794 L 22481,17889 C 22480,17892 22478,17895 22474,17896 Z"/>
       </g>
      </g>
      <g class="com.sun.star.drawing.ClosedBezierShape">
       <g id="id45">
        <rect class="BoundingBox" stroke="none" fill="none" x="21937" y="16728" width="806" height="520"/>
        <path fill="rgb(13,13,13)" stroke="none" d="M 22643,17220 C 22597,17248 22544,17254 22484,17240 L 22095,17144 C 22034,17129 21990,17099 21963,17053 21936,17007 21930,16954 21945,16893 21960,16831 21990,16786 22036,16757 22081,16728 22135,16721 22196,16736 L 22239,16746 C 22243,16747 22246,16749 22247,16753 22249,16756 22250,16759 22249,16763 L 22225,16863 C 22224,16866 22222,16869 22219,16871 22215,16873 22212,16873 22208,16872 L 22163,16861 C 22137,16855 22114,16857 22094,16868 22073,16879 22061,16896 22055,16920 22049,16943 22052,16964 22065,16983 22077,17001 22098,17013 22124,17020 L 22516,17116 C 22542,17122 22565,17121 22585,17110 22605,17100 22617,17083 22623,17059 22629,17035 22626,17014 22613,16995 22601,16977 22581,16964 22555,16958 L 22449,16932 C 22446,16931 22443,16932 22442,16936 L 22426,17001 C 22425,17005 22423,17008 22420,17010 22417,17012 22414,17012 22410,17011 L 22330,16991 C 22326,16991 22323,16989 22321,16985 22319,16982 22319,16979 22320,16975 L 22365,16791 C 22365,16787 22367,16785 22371,16783 22374,16781 22377,16780 22381,16781 L 22584,16832 C 22644,16847 22688,16878 22715,16924 22742,16971 22748,17025 22733,17086 22718,17147 22688,17192 22643,17220 Z"/>
       </g>
      </g>
      <g class="com.sun.star.drawing.ClosedBezierShape">
       <g id="id46">
        <rect class="BoundingBox" stroke="none" fill="none" x="22032" y="16176" width="844" height="510"/>
        <path fill="rgb(13,13,13)" stroke="none" d="M 22200,16196 C 22202,16199 22203,16202 22203,16206 L 22164,16442 C 22163,16446 22164,16448 22168,16448 L 22380,16484 C 22384,16485 22386,16483 22387,16480 L 22410,16339 C 22411,16335 22412,16332 22415,16330 22419,16328 22422,16327 22426,16328 L 22512,16342 C 22515,16343 22518,16344 22520,16347 22523,16350 22523,16354 22523,16357 L 22500,16499 C 22499,16502 22501,16504 22504,16505 L 22717,16540 C 22720,16541 22723,16539 22723,16535 L 22762,16298 C 22763,16294 22765,16291 22768,16289 22771,16287 22774,16286 22778,16287 L 22863,16301 C 22866,16302 22869,16303 22872,16306 22874,16309 22875,16313 22874,16316 L 22815,16673 C 22815,16677 22813,16680 22810,16682 22807,16684 22803,16685 22800,16684 L 22043,16559 C 22040,16559 22037,16557 22034,16554 22032,16551 22032,16548 22032,16544 L 22091,16187 C 22092,16183 22093,16181 22096,16178 22099,16176 22103,16176 22107,16176 L 22191,16190 C 22195,16191 22198,16193 22200,16196 Z"/>
       </g>
      </g>
      <g class="com.sun.star.drawing.ClosedBezierShape">
       <g id="id47">
        <rect class="BoundingBox" stroke="none" fill="none" x="22115" y="15674" width="812" height="443"/>
        <path fill="rgb(13,13,13)" stroke="none" d="M 22855,16071 C 22814,16105 22763,16120 22703,16114 L 22671,16111 C 22667,16111 22664,16110 22662,16107 22659,16104 22658,16101 22659,16097 L 22668,15997 C 22668,15993 22669,15990 22672,15987 22675,15985 22679,15984 22682,15984 L 22707,15987 C 22736,15989 22761,15984 22780,15971 22799,15958 22810,15940 22812,15918 22814,15895 22807,15876 22792,15859 22776,15843 22754,15834 22727,15831 22708,15830 22691,15832 22675,15839 22660,15846 22645,15856 22631,15869 22617,15882 22597,15904 22570,15934 22539,15969 22513,15996 22490,16017 22467,16038 22439,16054 22408,16067 22377,16080 22342,16084 22303,16081 22240,16075 22192,16052 22158,16011 22125,15971 22111,15921 22116,15862 22121,15800 22145,15752 22187,15718 22229,15683 22283,15669 22347,15675 L 22374,15677 C 22378,15678 22381,15679 22383,15682 22386,15685 22387,15688 22387,15692 L 22378,15792 C 22377,15796 22376,15799 22373,15802 22370,15804 22367,15805 22363,15804 L 22334,15802 C 22304,15799 22280,15804 22260,15817 22241,15830 22231,15848 22229,15872 22227,15893 22233,15912 22248,15927 22263,15942 22286,15951 22314,15954 22341,15956 22365,15951 22385,15937 22405,15924 22434,15897 22471,15855 22510,15813 22540,15782 22563,15761 22587,15740 22611,15724 22638,15714 22665,15704 22696,15700 22731,15704 22795,15709 22845,15733 22880,15774 22915,15816 22930,15867 22925,15928 22920,15989 22896,16036 22855,16071 Z"/>
       </g>
      </g>
      <g class="com.sun.star.drawing.ClosedBezierShape">
       <g id="id48">
        <rect class="BoundingBox" stroke="none" fill="none" x="7827" y="13566" width="598" height="598"/>
        <path fill="rgb(13,13,13)" stroke="none" d="M 8424,13864 C 8424,14030 8291,14163 8126,14163 7960,14163 7827,14030 7827,13864 7827,13699 7960,13566 8126,13566 8291,13566 8424,13699 8424,13864 Z"/>
       </g>
      </g>
      <g class="com.sun.star.drawing.ClosedBezierShape">
       <g id="id49">
        <rect class="BoundingBox" stroke="none" fill="none" x="22001" y="13566" width="598" height="598"/>
        <path fill="rgb(13,13,13)" stroke="none" d="M 22598,13864 C 22598,14030 22465,14163 22299,14163 22134,14163 22001,14030 22001,13864 22001,13699 22134,13566 22299,13566 22465,13566 22598,13699 22598,13864 Z"/>
       </g>
      </g>
      <g class="com.sun.star.drawing.ClosedBezierShape">
       <g id="id50">
        <rect class="BoundingBox" stroke="none" fill="none" x="14531" y="11165" width="386" height="1398"/>
        <path fill="rgb(13,13,13)" stroke="none" d="M 14849,12562 C 14853,12562 14858,12562 14862,12561 14898,12554 14921,12519 14914,12484 L 14661,11218 C 14654,11182 14620,11160 14584,11166 14548,11173 14525,11208 14532,11243 L 14784,12509 C 14791,12540 14818,12562 14849,12562 Z"/>
       </g>
      </g>
      <g class="com.sun.star.drawing.ClosedBezierShape">
       <g id="id51">
        <rect class="BoundingBox" stroke="none" fill="none" x="17136" y="13750" width="1400" height="385"/>
        <path fill="rgb(13,13,13)" stroke="none" d="M 17215,14132 L 18481,13880 C 18517,13873 18540,13838 18533,13802 18526,13767 18491,13744 18455,13751 L 17189,14003 C 17154,14010 17131,14045 17137,14080 17144,14112 17171,14133 17202,14133 17206,14133 17211,14133 17215,14132 Z"/>
       </g>
      </g>
      <g class="com.sun.star.drawing.ClosedBezierShape">
       <g id="id52">
        <rect class="BoundingBox" stroke="none" fill="none" x="16285" y="11656" width="851" height="1207"/>
        <path fill="rgb(13,13,13)" stroke="none" d="M 17105,11667 C 17075,11647 17034,11655 17014,11685 L 16297,12758 C 16276,12789 16284,12830 16315,12850 16326,12857 16339,12861 16351,12861 16373,12861 16394,12851 16406,12832 L 17124,11759 C 17144,11728 17136,11687 17105,11667 Z"/>
       </g>
      </g>
      <g class="com.sun.star.drawing.ClosedBezierShape">
       <g id="id53">
        <rect class="BoundingBox" stroke="none" fill="none" x="12437" y="12564" width="1207" height="851"/>
        <path fill="rgb(13,13,13)" stroke="none" d="M 13576,13413 C 13598,13413 13619,13403 13631,13384 13652,13354 13643,13313 13613,13293 L 12540,12575 C 12510,12555 12469,12563 12448,12593 12428,12623 12436,12664 12466,12685 L 13540,13402 C 13551,13410 13564,13413 13576,13413 Z"/>
       </g>
      </g>
      <g class="com.sun.star.drawing.ClosedBezierShape">
       <g id="id54">
        <rect class="BoundingBox" stroke="none" fill="none" x="13345" y="11656" width="851" height="1207"/>
        <path fill="rgb(13,13,13)" stroke="none" d="M 14183,12758 L 13466,11685 C 13446,11655 13405,11647 13375,11667 13344,11687 13336,11728 13356,11759 L 14074,12832 C 14086,12851 14107,12861 14129,12861 14141,12861 14154,12857 14165,12850 14196,12830 14204,12789 14183,12758 Z"/>
       </g>
      </g>
      <g class="com.sun.star.drawing.ClosedBezierShape">
       <g id="id55">
        <rect class="BoundingBox" stroke="none" fill="none" x="16838" y="12564" width="1207" height="851"/>
        <path fill="rgb(13,13,13)" stroke="none" d="M 18032,12593 C 18011,12563 17970,12555 17940,12575 L 16867,13293 C 16837,13313 16828,13354 16849,13384 16861,13403 16882,13413 16903,13413 16916,13413 16929,13410 16940,13402 L 18013,12685 C 18044,12664 18052,12623 18032,12593 Z"/>
       </g>
      </g>
      <g class="com.sun.star.drawing.ClosedBezierShape">
       <g id="id56">
        <rect class="BoundingBox" stroke="none" fill="none" x="15564" y="11165" width="386" height="1398"/>
        <path fill="rgb(13,13,13)" stroke="none" d="M 15617,12561 C 15621,12562 15626,12562 15630,12562 15661,12562 15688,12541 15695,12509 L 15947,11243 C 15954,11208 15931,11173 15894,11166 15858,11160 15824,11182 15817,11218 L 15565,12484 C 15558,12519 15581,12554 15617,12561 Z"/>
       </g>
      </g>
      <g class="com.sun.star.drawing.ClosedBezierShape">
       <g id="id57">
        <rect class="BoundingBox" stroke="none" fill="none" x="11946" y="13750" width="1399" height="386"/>
        <path fill="rgb(13,13,13)" stroke="none" d="M 13291,14003 L 12025,13751 C 11988,13744 11954,13767 11947,13802 11940,13838 11963,13873 11999,13880 L 13264,14132 C 13268,14133 13274,14134 13278,14134 13309,14134 13336,14112 13342,14081 13349,14045 13326,14010 13291,14003 Z"/>
       </g>
      </g>
      <g class="com.sun.star.drawing.ClosedBezierShape">
       <g id="id58">
        <rect class="BoundingBox" stroke="none" fill="none" x="15174" y="9944" width="133" height="2581"/>
        <path fill="rgb(13,13,13)" stroke="none" d="M 15240,9944 C 15203,9944 15174,9973 15174,10009 L 15174,12458 C 15174,12494 15203,12524 15240,12524 15277,12524 15306,12494 15306,12458 L 15306,10009 C 15306,9973 15277,9944 15240,9944 Z"/>
       </g>
      </g>
      <g class="com.sun.star.drawing.ClosedBezierShape">
       <g id="id59">
        <rect class="BoundingBox" stroke="none" fill="none" x="17175" y="14391" width="3233" height="135"/>
        <path fill="rgb(13,13,13)" stroke="none" d="M 20341,14392 L 17241,14392 C 17204,14392 17175,14422 17175,14458 17175,14495 17204,14525 17241,14525 L 20341,14525 C 20378,14525 20407,14495 20407,14458 20407,14422 20378,14392 20341,14392 Z"/>
       </g>
      </g>
      <g class="com.sun.star.drawing.ClosedBezierShape">
       <g id="id60">
        <rect class="BoundingBox" stroke="none" fill="none" x="10073" y="14391" width="3233" height="135"/>
        <path fill="rgb(13,13,13)" stroke="none" d="M 13305,14458 C 13305,14422 13276,14392 13239,14392 L 10139,14392 C 10102,14392 10073,14422 10073,14458 10073,14495 10102,14525 10139,14525 L 13239,14525 C 13276,14525 13305,14495 13305,14458 Z"/>
       </g>
      </g>
      <g class="com.sun.star.drawing.ClosedBezierShape">
       <g id="id61">
        <rect class="BoundingBox" stroke="none" fill="none" x="16589" y="11120" width="1997" height="1991"/>
        <path fill="rgb(13,13,13)" stroke="none" d="M 16656,13109 C 16673,13109 16689,13103 16702,13090 L 18566,11233 C 18592,11207 18592,11165 18566,11140 18541,11114 18498,11114 18472,11140 L 16609,12996 C 16583,13022 16583,13064 16609,13090 16622,13103 16639,13109 16656,13109 Z"/>
       </g>
      </g>
      <g class="com.sun.star.drawing.ClosedBezierShape">
       <g id="id62">
        <rect class="BoundingBox" stroke="none" fill="none" x="11865" y="11087" width="2028" height="2024"/>
        <path fill="rgb(13,13,13)" stroke="none" d="M 13779,13090 C 13792,13103 13808,13109 13825,13109 13842,13109 13859,13103 13872,13090 13898,13064 13898,13022 13872,12997 L 11985,11110 C 11921,11042 11827,11138 11881,11194 L 13779,13090 Z"/>
       </g>
      </g>
      <g class="com.sun.star.drawing.ClosedBezierShape">
       <g id="id63">
        <rect class="BoundingBox" stroke="none" fill="none" x="13448" y="10224" width="1094" height="2454"/>
        <path fill="rgb(13,13,13)" stroke="none" d="M 14475,12677 C 14483,12677 14492,12675 14500,12672 14534,12658 14549,12620 14535,12586 L 13574,10265 C 13561,10231 13522,10216 13488,10229 13455,10243 13439,10282 13453,10316 L 14414,12636 C 14424,12662 14449,12677 14475,12677 Z"/>
       </g>
      </g>
      <g class="com.sun.star.drawing.ClosedBezierShape">
       <g id="id64">
        <rect class="BoundingBox" stroke="none" fill="none" x="17022" y="12537" width="2767" height="1223"/>
        <path fill="rgb(13,13,13)" stroke="none" d="M 19782,12578 C 19768,12544 19729,12529 19696,12542 L 17062,13632 C 17029,13646 17013,13685 17027,13719 17037,13744 17062,13759 17087,13759 17096,13759 17104,13758 17113,13754 L 19746,12664 C 19780,12650 19796,12611 19782,12578 Z"/>
       </g>
      </g>
      <g class="com.sun.star.drawing.ClosedBezierShape">
       <g id="id65">
        <rect class="BoundingBox" stroke="none" fill="none" x="15939" y="10242" width="1099" height="2435"/>
        <path fill="rgb(13,13,13)" stroke="none" d="M 16005,12676 C 16031,12676 16056,12661 16066,12635 L 17032,10334 C 17045,10300 17029,10261 16996,10247 16961,10233 16922,10250 16909,10283 L 15944,12585 C 15931,12619 15946,12657 15980,12671 15988,12674 15997,12676 16005,12676 Z"/>
       </g>
      </g>
      <g class="com.sun.star.drawing.ClosedBezierShape">
       <g id="id66">
        <rect class="BoundingBox" stroke="none" fill="none" x="10640" y="12514" width="2819" height="1247"/>
        <path fill="rgb(13,13,13)" stroke="none" d="M 13417,13632 L 10731,12519 C 10663,12487 10608,12604 10664,12634 L 13366,13754 C 13375,13758 13383,13759 13392,13759 13417,13759 13442,13744 13452,13719 13466,13685 13450,13646 13417,13632 Z"/>
       </g>
      </g>
      <g class="com.sun.star.drawing.ClosedBezierShape">
       <g id="id67">
        <rect class="BoundingBox" stroke="none" fill="none" x="14744" y="10036" width="367" height="2500"/>
        <path fill="rgb(13,13,13)" stroke="none" d="M 14804,10037 C 14768,10040 14740,10073 14745,10109 L 14978,12474 C 14981,12508 15010,12534 15043,12534 15045,12534 15048,12534 15050,12533 15086,12530 15114,12498 15110,12461 L 14876,10096 C 14872,10060 14842,10029 14804,10037 Z"/>
       </g>
      </g>
      <g class="com.sun.star.drawing.ClosedBezierShape">
       <g id="id68">
        <rect class="BoundingBox" stroke="none" fill="none" x="17165" y="13961" width="2498" height="369"/>
        <path fill="rgb(13,13,13)" stroke="none" d="M 17230,14329 C 17232,14329 17234,14329 17237,14328 L 19602,14096 C 19638,14093 19665,14060 19661,14023 19657,13987 19627,13955 19589,13964 L 17224,14197 C 17187,14201 17161,14233 17165,14270 17168,14303 17197,14329 17230,14329 Z"/>
       </g>
      </g>
      <g class="com.sun.star.drawing.ClosedBezierShape">
       <g id="id69">
        <rect class="BoundingBox" stroke="none" fill="none" x="16443" y="11009" width="1641" height="1970"/>
        <path fill="rgb(13,13,13)" stroke="none" d="M 16509,12978 C 16528,12978 16547,12970 16560,12954 L 18068,11117 C 18091,11088 18087,11047 18059,11024 18031,11001 17990,11005 17966,11033 L 16458,12870 C 16435,12899 16439,12940 16467,12963 16479,12973 16494,12978 16509,12978 Z"/>
       </g>
      </g>
      <g class="com.sun.star.drawing.ClosedBezierShape">
       <g id="id70">
        <rect class="BoundingBox" stroke="none" fill="none" x="11790" y="11615" width="1971" height="1642"/>
        <path fill="rgb(13,13,13)" stroke="none" d="M 13735,13138 L 11898,11630 C 11870,11608 11828,11612 11805,11640 11782,11668 11786,11710 11814,11733 L 13652,13241 C 13664,13251 13679,13255 13693,13255 13712,13255 13731,13247 13744,13232 13768,13203 13763,13162 13735,13138 Z"/>
       </g>
      </g>
      <g class="com.sun.star.drawing.ClosedBezierShape">
       <g id="id71">
        <rect class="BoundingBox" stroke="none" fill="none" x="13109" y="10532" width="1255" height="2229"/>
        <path fill="rgb(13,13,13)" stroke="none" d="M 14297,12760 C 14308,12760 14318,12758 14328,12753 14360,12735 14372,12695 14355,12663 L 13235,10567 C 13218,10535 13178,10523 13146,10540 13113,10557 13101,10597 13118,10629 L 14239,12725 C 14251,12748 14274,12760 14297,12760 Z"/>
       </g>
      </g>
      <g class="com.sun.star.drawing.ClosedBezierShape">
       <g id="id72">
        <rect class="BoundingBox" stroke="none" fill="none" x="16939" y="12329" width="2230" height="1254"/>
        <path fill="rgb(13,13,13)" stroke="none" d="M 17005,13582 C 17016,13582 17027,13579 17037,13574 L 19133,12453 C 19165,12436 19177,12396 19160,12364 19143,12332 19103,12320 19070,12337 L 16974,13458 C 16942,13475 16930,13515 16947,13547 16959,13569 16982,13582 17005,13582 Z"/>
       </g>
      </g>
      <g class="com.sun.star.drawing.ClosedBezierShape">
       <g id="id73">
        <rect class="BoundingBox" stroke="none" fill="none" x="15755" y="10203" width="824" height="2409"/>
        <path fill="rgb(13,13,13)" stroke="none" d="M 15802,12607 C 15809,12609 15815,12610 15821,12610 15850,12610 15876,12592 15885,12563 L 16575,10289 C 16586,10254 16566,10217 16531,10207 16496,10195 16459,10216 16449,10251 L 15758,12525 C 15748,12560 15768,12597 15802,12607 Z"/>
       </g>
      </g>
      <g class="com.sun.star.drawing.ClosedBezierShape">
       <g id="id74">
        <rect class="BoundingBox" stroke="none" fill="none" x="10985" y="13121" width="2408" height="824"/>
        <path fill="rgb(13,13,13)" stroke="none" d="M 13344,13814 L 11070,13124 C 11035,13112 10999,13133 10988,13167 10977,13202 10997,13239 11032,13249 L 13306,13940 C 13313,13943 13319,13943 13325,13943 13354,13943 13380,13925 13388,13897 13399,13862 13379,13825 13344,13814 Z"/>
       </g>
      </g>
      <g class="com.sun.star.drawing.ClosedBezierShape">
       <g id="id75">
        <rect class="BoundingBox" stroke="none" fill="none" x="13903" y="10202" width="824" height="2409"/>
        <path fill="rgb(13,13,13)" stroke="none" d="M 14660,12609 C 14666,12609 14672,12608 14679,12606 14713,12596 14733,12559 14723,12524 L 14032,10250 C 14021,10215 13985,10194 13950,10206 13915,10216 13895,10253 13906,10288 L 14596,12562 C 14605,12591 14631,12609 14660,12609 Z"/>
       </g>
      </g>
      <g class="com.sun.star.drawing.ClosedBezierShape">
       <g id="id76">
        <rect class="BoundingBox" stroke="none" fill="none" x="17089" y="13121" width="2408" height="824"/>
        <path fill="rgb(13,13,13)" stroke="none" d="M 19493,13168 C 19483,13134 19446,13112 19411,13125 L 17136,13815 C 17102,13826 17082,13863 17092,13898 17101,13926 17127,13944 17156,13944 17162,13944 17168,13944 17175,13941 L 19449,13250 C 19484,13240 19503,13203 19493,13168 Z"/>
       </g>
      </g>
      <g class="com.sun.star.drawing.ClosedBezierShape">
       <g id="id77">
        <rect class="BoundingBox" stroke="none" fill="none" x="16116" y="10532" width="1255" height="2229"/>
        <path fill="rgb(13,13,13)" stroke="none" d="M 16183,12760 C 16206,12760 16229,12748 16241,12725 L 17362,10629 C 17379,10597 17367,10557 17335,10540 17302,10523 17263,10535 17246,10567 L 16125,12663 C 16108,12695 16120,12735 16152,12753 16162,12758 16172,12760 16183,12760 Z"/>
       </g>
      </g>
      <g class="com.sun.star.drawing.ClosedBezierShape">
       <g id="id78">
        <rect class="BoundingBox" stroke="none" fill="none" x="11314" y="12329" width="2230" height="1254"/>
        <path fill="rgb(13,13,13)" stroke="none" d="M 13535,13547 C 13552,13515 13540,13475 13508,13458 L 11411,12337 C 11379,12320 11339,12332 11322,12364 11305,12396 11317,12436 11349,12453 L 13445,13574 C 13455,13579 13466,13582 13476,13582 13500,13582 13523,13569 13535,13547 Z"/>
       </g>
      </g>
      <g class="com.sun.star.drawing.ClosedBezierShape">
       <g id="id79">
        <rect class="BoundingBox" stroke="none" fill="none" x="12397" y="11009" width="1641" height="1970"/>
        <path fill="rgb(13,13,13)" stroke="none" d="M 13971,12978 C 13986,12978 14001,12973 14013,12963 14041,12940 14045,12899 14022,12870 L 12514,11033 C 12491,11005 12449,11001 12421,11024 12393,11047 12389,11088 12412,11117 L 13919,12954 C 13933,12970 13952,12978 13971,12978 Z"/>
       </g>
      </g>
      <g class="com.sun.star.drawing.ClosedBezierShape">
       <g id="id80">
        <rect class="BoundingBox" stroke="none" fill="none" x="16721" y="11615" width="1971" height="1642"/>
        <path fill="rgb(13,13,13)" stroke="none" d="M 18582,11630 L 16746,13138 C 16717,13162 16712,13203 16737,13232 16750,13247 16769,13255 16788,13255 16802,13255 16817,13251 16829,13241 L 18666,11733 C 18694,11709 18699,11668 18675,11640 18652,11612 18610,11608 18582,11630 Z"/>
       </g>
      </g>
      <g class="com.sun.star.drawing.ClosedBezierShape">
       <g id="id81">
        <rect class="BoundingBox" stroke="none" fill="none" x="15370" y="10036" width="367" height="2500"/>
        <path fill="rgb(13,13,13)" stroke="none" d="M 15429,12533 C 15431,12534 15434,12534 15436,12534 15469,12534 15499,12508 15502,12474 L 15735,10109 C 15739,10073 15712,10040 15676,10037 15634,10029 15607,10060 15604,10096 L 15370,12461 C 15366,12498 15393,12530 15429,12533 Z"/>
       </g>
      </g>
      <g class="com.sun.star.drawing.ClosedBezierShape">
       <g id="id82">
        <rect class="BoundingBox" stroke="none" fill="none" x="10817" y="13961" width="2500" height="369"/>
        <path fill="rgb(13,13,13)" stroke="none" d="M 10818,14023 C 10814,14060 10841,14093 10877,14096 L 13242,14328 C 13245,14329 13247,14329 13249,14329 13282,14329 13311,14303 13315,14270 13318,14233 13291,14201 13255,14197 L 10890,13964 C 10851,13955 10822,13987 10818,14023 Z"/>
       </g>
      </g>
      <g class="com.sun.star.drawing.ClosedBezierShape">
       <g id="id83">
        <rect class="BoundingBox" stroke="none" fill="none" x="10262" y="16727" width="9965" height="353"/>
        <path fill="rgb(13,13,13)" stroke="none" d="M 19347,17079 L 19344,17079 C 19138,17078 18993,17008 18864,16947 18751,16894 18653,16848 18528,16847 18404,16848 18306,16894 18193,16947 18064,17008 17918,17078 17711,17079 17505,17078 17358,17008 17229,16947 17116,16894 17017,16847 16891,16847 16765,16847 16667,16894 16554,16947 16425,17008 16278,17078 16072,17079 15865,17078 15719,17008 15590,16947 15477,16894 15379,16848 15254,16847 15130,16848 15032,16894 14918,16947 14789,17008 14642,17079 14434,17079 14225,17079 14079,17008 13949,16947 13835,16894 13737,16847 13611,16847 13482,16847 13383,16894 13270,16947 13140,17008 12994,17079 12787,17079 12579,17079 12433,17008 12303,16947 12190,16894 12092,16847 11965,16847 11839,16847 11741,16894 11628,16947 11498,17008 11351,17079 11144,17079 10936,17079 10790,17008 10660,16947 10546,16894 10448,16847 10322,16847 10289,16847 10262,16820 10262,16787 10262,16754 10289,16727 10322,16727 10475,16727 10595,16783 10711,16838 10835,16897 10963,16957 11144,16957 11324,16957 11452,16897 11576,16838 11690,16785 11807,16729 11956,16727 L 11974,16727 C 12123,16729 12241,16785 12355,16838 12479,16897 12606,16957 12787,16957 12967,16957 13094,16897 13218,16838 13334,16783 13454,16727 13608,16727 13764,16727 13884,16783 14001,16838 14124,16897 14252,16957 14433,16957 14615,16957 14743,16897 14867,16838 14983,16784 15102,16728 15254,16727 15406,16728 15526,16784 15641,16838 15765,16897 15892,16957 16072,16957 16251,16957 16379,16897 16502,16838 16618,16783 16738,16727 16891,16727 17044,16727 17164,16783 17281,16838 17404,16897 17532,16957 17711,16957 17891,16957 18018,16897 18142,16838 18257,16784 18377,16728 18528,16727 18681,16728 18800,16784 18915,16838 19039,16897 19166,16957 19346,16957 19525,16957 19652,16897 19776,16838 19892,16783 20012,16727 20165,16727 20199,16727 20226,16754 20226,16787 20226,16820 20199,16847 20165,16847 20039,16847 19941,16894 19827,16947 19699,17008 19553,17078 19347,17079 Z"/>
       </g>
      </g>
      <g class="com.sun.star.drawing.ClosedBezierShape">
       <g id="id84">
        <rect class="BoundingBox" stroke="none" fill="none" x="11412" y="18655" width="7661" height="353"/>
        <path fill="rgb(13,13,13)" stroke="none" d="M 12788,19007 L 12788,19007 Z M 16073,19007 L 16073,19007 Z M 16070,18887 L 16072,18946 16070,18887 Z M 17711,18947 L 17711,18947 Z M 12787,18948 L 12787,18948 Z M 17713,19007 L 17711,18949 17713,19007 17711,19007 17711,18967 17711,19007 17711,19000 17711,19007 C 17505,19007 17358,18938 17229,18877 17116,18823 17017,18776 16891,18776 16765,18776 16667,18823 16554,18877 16425,18938 16279,19007 16073,19007 L 16072,18949 16073,19007 16072,19007 16072,18967 16072,19007 16072,18999 16072,19007 C 15865,19007 15719,18938 15590,18877 15477,18824 15379,18776 15254,18776 15130,18776 15032,18824 14919,18877 14789,18938 14643,19007 14435,19007 14226,19007 14080,18938 13950,18877 13836,18823 13738,18776 13612,18776 13482,18776 13384,18823 13271,18877 13141,18938 12995,19007 12788,19007 L 12788,18950 12788,19007 12788,18967 12787,19007 12787,19000 12787,19007 C 12580,19007 12434,18938 12304,18877 12191,18823 12093,18776 11966,18776 11840,18776 11742,18823 11628,18877 11586,18897 11542,18917 11496,18936 11464,18949 11429,18934 11416,18903 11404,18872 11419,18837 11450,18824 11494,18807 11536,18787 11576,18767 11693,18712 11813,18655 11966,18655 12120,18655 12240,18712 12356,18767 12480,18826 12607,18887 12787,18887 12968,18887 13095,18826 13219,18767 13335,18712 13455,18655 13609,18655 13765,18655 13885,18712 14002,18767 14125,18826 14253,18887 14434,18887 14616,18887 14744,18826 14868,18767 14983,18712 15102,18656 15254,18655 15406,18656 15526,18712 15641,18767 15765,18826 15892,18886 16072,18887 16251,18886 16379,18826 16502,18767 16618,18712 16738,18655 16891,18655 17044,18655 17165,18712 17281,18767 17404,18826 17532,18886 17711,18887 17891,18886 18018,18826 18142,18767 18257,18712 18377,18656 18528,18655 18681,18656 18800,18713 18916,18767 18954,18786 18993,18805 19034,18821 19065,18834 19079,18869 19067,18900 19054,18931 19019,18945 18988,18933 18945,18915 18904,18896 18865,18877 18751,18824 18654,18776 18528,18776 18404,18776 18306,18824 18193,18877 18064,18938 17918,19007 17713,19007 Z M 17713,19007 L 17713,19007 Z"/>
       </g>
      </g>
      <g class="com.sun.star.drawing.ClosedBezierShape">
       <g id="id85">
        <rect class="BoundingBox" stroke="none" fill="none" x="10431" y="17369" width="9618" height="353"/>
        <path fill="rgb(13,13,13)" stroke="none" d="M 14435,17721 C 14225,17721 14079,17652 13949,17591 13835,17537 13737,17491 13611,17491 13481,17491 13383,17537 13270,17591 13140,17652 12994,17721 12787,17721 12579,17721 12433,17652 12303,17591 12190,17537 12092,17491 11965,17491 11839,17491 11741,17537 11628,17591 11498,17652 11351,17721 11144,17721 10936,17721 10789,17652 10660,17591 10597,17561 10537,17533 10474,17514 10443,17505 10424,17471 10434,17439 10444,17408 10477,17389 10509,17399 10580,17420 10647,17452 10711,17482 10835,17541 10963,17601 11144,17601 11324,17601 11452,17540 11576,17482 11692,17427 11812,17369 11965,17369 L 11965,17411 11965,17369 11965,17383 11965,17369 C 12119,17369 12239,17427 12355,17482 12479,17540 12606,17601 12787,17601 12967,17601 13094,17540 13218,17482 13334,17427 13454,17369 13608,17369 13764,17369 13884,17427 14001,17482 14124,17540 14252,17601 14434,17601 14616,17601 14744,17541 14868,17482 14982,17428 15101,17371 15252,17370 L 15252,17369 15257,17370 C 15408,17371 15526,17428 15641,17482 15765,17540 15892,17601 16072,17601 16251,17601 16379,17540 16502,17482 16618,17427 16738,17370 16891,17369 L 16891,17411 16891,17369 16891,17381 16891,17369 C 17044,17369 17164,17427 17281,17482 17404,17540 17532,17601 17711,17601 17891,17601 18018,17540 18142,17482 18257,17428 18375,17371 18526,17370 L 18526,17369 18531,17370 C 18682,17371 18801,17428 18915,17482 19039,17540 19166,17601 19346,17601 19525,17601 19653,17540 19776,17482 19838,17453 19901,17423 19969,17402 20001,17392 20035,17410 20045,17441 20054,17473 20037,17507 20005,17517 19945,17536 19888,17563 19828,17591 19699,17652 19552,17721 19346,17721 19139,17721 18993,17652 18864,17591 18751,17538 18653,17492 18529,17491 18404,17492 18306,17538 18193,17591 18064,17652 17918,17721 17711,17721 17505,17721 17358,17652 17229,17591 17116,17537 17017,17491 16891,17491 16765,17491 16667,17537 16554,17591 16425,17652 16278,17721 16072,17721 15865,17721 15719,17652 15590,17591 15477,17538 15379,17492 15254,17491 15129,17492 15032,17538 14919,17591 14789,17652 14643,17721 14435,17721 Z"/>
       </g>
      </g>
      <g class="com.sun.star.drawing.ClosedBezierShape">
       <g id="id86">
        <rect class="BoundingBox" stroke="none" fill="none" x="10917" y="18012" width="8647" height="353"/>
        <path fill="rgb(13,13,13)" stroke="none" d="M 14435,18364 C 14226,18364 14080,18295 13950,18234 13836,18180 13738,18134 13612,18134 13482,18134 13384,18180 13271,18234 13141,18295 12995,18364 12787,18364 12579,18364 12433,18295 12303,18234 12190,18180 12092,18134 11965,18134 11839,18134 11741,18180 11628,18234 11498,18295 11351,18364 11144,18364 11084,18364 11025,18358 10965,18346 10933,18339 10912,18307 10918,18275 10925,18242 10957,18221 10990,18228 11042,18239 11092,18244 11144,18244 11324,18244 11452,18183 11576,18125 11690,18070 11807,18015 11956,18012 L 11974,18012 C 12123,18014 12241,18070 12355,18125 12479,18183 12606,18244 12787,18244 12968,18244 13095,18183 13219,18125 13335,18069 13455,18012 13609,18012 13765,18012 13885,18069 14002,18125 14125,18183 14253,18244 14434,18244 14616,18244 14744,18183 14868,18125 14982,18070 15101,18014 15252,18012 L 15257,18012 C 15408,18014 15526,18070 15641,18125 15765,18183 15892,18244 16072,18244 16251,18244 16379,18183 16502,18125 16617,18070 16736,18013 16887,18012 L 16895,18012 C 17047,18013 17166,18070 17281,18125 17404,18183 17532,18244 17711,18244 17891,18244 18018,18183 18142,18125 18257,18070 18375,18014 18526,18012 L 18531,18012 C 18682,18014 18801,18070 18915,18125 19039,18183 19166,18243 19346,18244 19394,18244 19441,18239 19490,18229 19523,18223 19554,18244 19561,18277 19567,18310 19546,18341 19513,18348 19456,18359 19402,18364 19346,18364 19139,18364 18993,18295 18864,18234 18751,18181 18653,18135 18529,18134 18404,18135 18306,18181 18193,18234 18064,18295 17918,18364 17711,18364 17505,18364 17358,18295 17229,18234 17116,18180 17017,18134 16891,18134 16765,18134 16667,18180 16554,18234 16425,18295 16278,18364 16072,18364 15865,18364 15719,18295 15590,18234 15477,18181 15379,18135 15254,18134 15129,18135 15032,18181 14919,18234 14790,18295 14643,18364 14435,18364 Z"/>
       </g>
      </g>
      <g class="com.sun.star.drawing.ClosedBezierShape">
       <g id="id87">
        <rect class="BoundingBox" stroke="none" fill="none" x="13209" y="19941" width="4074" height="353"/>
        <path fill="rgb(13,13,13)" stroke="none" d="M 14436,20293 C 14226,20293 14080,20224 13950,20162 13836,20108 13738,20062 13612,20062 13493,20062 13399,20101 13296,20150 13266,20164 13230,20151 13216,20121 13202,20090 13215,20055 13245,20040 13357,19988 13469,19941 13609,19941 13765,19941 13885,19998 14002,20053 14125,20111 14254,20172 14435,20172 14617,20172 14745,20111 14869,20053 14983,19999 15102,19943 15253,19941 L 15258,19941 C 15409,19943 15527,19999 15642,20053 15766,20111 15893,20171 16073,20172 16252,20171 16380,20111 16503,20053 16618,19998 16737,19942 16888,19941 L 16896,19941 C 17033,19942 17144,19989 17246,20036 17277,20050 17290,20086 17276,20116 17262,20147 17226,20160 17196,20145 17101,20101 17006,20062 16892,20062 16766,20062 16668,20108 16555,20162 16426,20224 16279,20293 16073,20293 15866,20293 15720,20224 15591,20162 15478,20108 15380,20062 15255,20062 15130,20062 15033,20108 14920,20162 14791,20224 14644,20293 14436,20293 Z"/>
       </g>
      </g>
      <g class="com.sun.star.drawing.ClosedBezierShape">
       <g id="id88">
        <rect class="BoundingBox" stroke="none" fill="none" x="11944" y="19298" width="6592" height="354"/>
        <path fill="rgb(13,13,13)" stroke="none" d="M 12787,19650 L 12787,19650 Z M 12786,19591 L 12786,19591 Z M 17713,19650 L 17709,19650 C 17504,19649 17358,19581 17229,19520 17116,19465 17017,19419 16891,19419 16765,19419 16667,19465 16554,19520 16424,19581 16278,19649 16073,19650 L 16072,19650 16069,19650 C 15863,19649 15717,19581 15589,19520 15476,19465 15378,19419 15253,19419 15129,19419 15031,19465 14918,19520 14788,19581 14642,19650 14434,19650 14225,19650 14079,19581 13949,19520 13835,19465 13737,19419 13611,19419 13481,19419 13383,19465 13270,19520 13140,19581 12994,19650 12787,19650 L 12787,19593 12787,19650 12787,19608 12786,19650 12786,19643 12786,19650 C 12579,19650 12433,19581 12303,19520 12204,19472 12110,19428 12000,19420 11967,19418 11942,19389 11944,19356 11947,19323 11976,19298 12009,19300 12141,19310 12250,19361 12355,19410 12478,19468 12606,19530 12786,19530 12967,19530 13094,19468 13218,19410 13334,19355 13454,19298 13608,19298 13764,19298 13884,19355 14001,19410 14124,19468 14252,19530 14433,19530 14615,19530 14743,19468 14867,19410 14982,19355 15101,19299 15253,19298 15405,19299 15525,19355 15640,19410 15764,19468 15891,19529 16071,19530 16250,19529 16378,19468 16502,19410 16618,19355 16738,19298 16891,19298 17044,19298 17164,19355 17281,19410 17404,19468 17532,19529 17711,19530 17891,19529 18018,19468 18142,19410 18241,19363 18344,19314 18468,19302 18501,19298 18531,19322 18534,19355 18537,19388 18513,19418 18480,19421 18377,19432 18288,19474 18193,19520 18064,19581 17919,19649 17713,19650 Z"/>
       </g>
      </g>
      <g class="com.sun.star.drawing.ClosedBezierShape">
       <g id="id89">
        <rect class="BoundingBox" stroke="none" fill="none" x="11514" y="15116" width="448" height="1018"/>
        <path fill="rgb(13,13,13)" stroke="none" d="M 11956,15256 C 11953,15259 11950,15261 11946,15261 L 11669,15261 C 11665,15261 11662,15263 11662,15268 L 11662,15543 C 11662,15547 11665,15550 11669,15550 L 11833,15550 C 11837,15550 11841,15551 11844,15555 11847,15558 11849,15562 11849,15567 L 11849,15679 C 11849,15684 11847,15688 11844,15691 11841,15695 11837,15696 11833,15696 L 11669,15696 C 11665,15696 11662,15699 11662,15704 L 11662,15980 C 11662,15985 11665,15988 11669,15988 L 11946,15988 C 11950,15988 11953,15989 11956,15993 11959,15996 11961,16000 11961,16005 L 11961,16115 C 11961,16120 11959,16124 11956,16128 11953,16131 11950,16133 11946,16133 L 11530,16133 C 11525,16133 11522,16131 11519,16128 11516,16124 11514,16120 11514,16115 L 11514,15133 C 11514,15129 11516,15124 11519,15121 11522,15118 11525,15116 11530,15116 L 11946,15116 C 11950,15116 11953,15118 11956,15121 11959,15124 11961,15129 11961,15133 L 11961,15244 C 11961,15248 11959,15253 11956,15256 Z"/>
       </g>
      </g>
      <g class="com.sun.star.drawing.ClosedBezierShape">
       <g id="id90">
        <rect class="BoundingBox" stroke="none" fill="none" x="12455" y="15104" width="477" height="1042"/>
        <path fill="rgb(13,13,13)" stroke="none" d="M 12523,16070 C 12480,16021 12458,15958 12458,15881 L 12458,15840 C 12458,15835 12459,15831 12462,15828 12465,15824 12469,15823 12473,15823 L 12589,15823 C 12593,15823 12597,15824 12600,15828 12603,15831 12605,15835 12605,15840 L 12605,15872 C 12605,15910 12613,15940 12630,15963 12647,15987 12668,15998 12694,15998 12720,15998 12742,15987 12759,15966 12776,15944 12785,15915 12785,15879 12785,15855 12780,15833 12771,15815 12761,15796 12748,15778 12732,15762 12715,15745 12688,15722 12651,15691 12608,15656 12573,15625 12547,15598 12521,15571 12499,15538 12482,15500 12464,15462 12455,15417 12455,15367 12455,15287 12477,15223 12519,15175 12562,15128 12619,15104 12688,15104 12759,15104 12816,15129 12860,15179 12903,15229 12925,15295 12925,15377 L 12925,15412 C 12925,15417 12924,15421 12921,15424 12918,15428 12914,15429 12910,15429 L 12794,15429 C 12789,15429 12786,15428 12783,15424 12780,15421 12778,15417 12778,15412 L 12778,15374 C 12778,15336 12770,15306 12753,15284 12737,15261 12715,15249 12688,15249 12663,15249 12642,15260 12626,15281 12610,15301 12602,15330 12602,15367 12602,15402 12611,15431 12628,15455 12646,15480 12680,15513 12731,15556 12783,15600 12822,15636 12848,15663 12875,15690 12895,15720 12910,15753 12924,15786 12931,15825 12931,15870 12931,15953 12910,16019 12866,16069 12822,16119 12765,16144 12694,16144 12624,16144 12566,16120 12523,16070 Z"/>
       </g>
      </g>
      <g class="com.sun.star.drawing.ClosedBezierShape">
       <g id="id91">
        <rect class="BoundingBox" stroke="none" fill="none" x="13399" y="15116" width="509" height="1018"/>
        <path fill="rgb(13,13,13)" stroke="none" d="M 13903,15121 C 13906,15124 13907,15129 13907,15133 L 13907,15244 C 13907,15248 13906,15253 13903,15256 13900,15259 13896,15261 13892,15261 L 13730,15261 C 13725,15261 13723,15263 13723,15268 L 13723,16115 C 13723,16120 13722,16124 13719,16128 13716,16131 13712,16133 13708,16133 L 13590,16133 C 13586,16133 13582,16131 13579,16128 13576,16124 13575,16120 13575,16115 L 13575,15268 C 13575,15263 13573,15261 13569,15261 L 13415,15261 C 13411,15261 13407,15259 13404,15256 13401,15253 13399,15248 13399,15244 L 13399,15133 C 13399,15129 13401,15124 13404,15121 13407,15118 13411,15116 13415,15116 L 13892,15116 C 13896,15116 13900,15118 13903,15121 Z"/>
       </g>
      </g>
      <g class="com.sun.star.drawing.ClosedBezierShape">
       <g id="id92">
        <rect class="BoundingBox" stroke="none" fill="none" x="14298" y="15911" width="192" height="224"/>
        <path fill="rgb(13,13,13)" stroke="none" d="M 14325,16102 C 14307,16080 14298,16053 14298,16021 14298,15991 14308,15966 14327,15944 14348,15922 14370,15911 14394,15911 14418,15911 14440,15922 14460,15944 14479,15966 14489,15991 14489,16021 14489,16052 14480,16079 14462,16101 14444,16123 14421,16134 14394,16134 14366,16134 14343,16123 14325,16102 Z"/>
       </g>
      </g>
      <g class="com.sun.star.drawing.ClosedBezierShape">
       <g id="id93">
        <rect class="BoundingBox" stroke="none" fill="none" x="15719" y="15116" width="267" height="1018"/>
        <path fill="rgb(13,13,13)" stroke="none" d="M 15846,15116 L 15968,15116 C 15974,15116 15977,15118 15980,15121 15983,15124 15985,15128 15985,15133 L 15985,16115 C 15985,16120 15983,16124 15980,16128 15977,16131 15974,16133 15968,16133 L 15851,16133 C 15847,16133 15843,16131 15840,16128 15837,16124 15835,16120 15835,16115 L 15835,15284 C 15835,15282 15835,15281 15833,15279 15831,15278 15830,15277 15828,15278 L 15737,15309 C 15735,15310 15733,15310 15731,15310 15723,15310 15719,15305 15719,15294 L 15719,15199 C 15719,15189 15723,15182 15731,15178 L 15827,15122 C 15835,15118 15841,15116 15846,15116 Z"/>
       </g>
      </g>
      <g class="com.sun.star.drawing.ClosedBezierShape">
       <g id="id94">
        <rect class="BoundingBox" stroke="none" fill="none" x="16521" y="15104" width="464" height="1042"/>
        <path fill="rgb(13,13,13)" stroke="none" d="M 16834,15441 C 16834,15412 16833,15380 16830,15344 16826,15313 16817,15289 16804,15273 16791,15256 16774,15248 16752,15248 16731,15248 16714,15257 16701,15274 16687,15291 16679,15316 16674,15348 16672,15383 16671,15414 16671,15441 16671,15466 16673,15500 16677,15544 16687,15600 16712,15628 16752,15628 16773,15628 16790,15621 16803,15606 16816,15591 16825,15569 16829,15540 16832,15506 16834,15473 16834,15441 Z M 16984,15888 C 16984,15966 16963,16028 16921,16074 16879,16121 16823,16144 16754,16144 16689,16144 16636,16121 16595,16074 16554,16027 16534,15965 16534,15888 L 16534,15852 C 16534,15847 16535,15843 16538,15839 16541,15836 16545,15834 16549,15834 L 16667,15834 C 16671,15834 16675,15836 16678,15839 16681,15843 16682,15847 16682,15852 L 16682,15879 C 16682,15912 16689,15939 16703,15961 16717,15983 16734,15994 16754,15994 16777,15994 16797,15983 16812,15962 16827,15941 16834,15913 16834,15879 L 16834,15730 C 16834,15727 16833,15725 16831,15724 16830,15723 16828,15723 16826,15725 16802,15751 16771,15765 16734,15765 16676,15765 16628,15743 16591,15701 16555,15658 16533,15602 16528,15531 16523,15499 16521,15465 16521,15429 16521,15407 16522,15376 16524,15335 16528,15262 16550,15205 16591,15165 16631,15124 16685,15104 16751,15104 16814,15104 16866,15123 16905,15160 16944,15197 16968,15252 16976,15325 16981,15351 16983,15381 16983,15416 L 16984,15888 Z"/>
       </g>
      </g>
      <g class="com.sun.star.drawing.ClosedBezierShape">
       <g id="id95">
        <rect class="BoundingBox" stroke="none" fill="none" x="17539" y="15099" width="459" height="1047"/>
        <path fill="rgb(13,13,13)" stroke="none" d="M 17850,15832 C 17850,15795 17846,15764 17839,15739 17834,15716 17825,15698 17813,15685 17800,15672 17785,15665 17767,15665 17749,15665 17734,15672 17722,15686 17710,15699 17701,15719 17696,15744 17690,15767 17687,15796 17687,15831 17687,15866 17689,15893 17693,15914 17698,15941 17707,15962 17720,15977 17733,15992 17748,15999 17767,15999 17787,15999 17803,15991 17817,15975 17831,15959 17840,15937 17844,15909 17848,15885 17850,15859 17850,15832 Z M 17685,15388 C 17685,15418 17688,15442 17694,15459 L 17701,15480 C 17707,15498 17716,15512 17727,15522 17738,15531 17752,15536 17767,15536 17785,15536 17800,15530 17813,15518 17826,15506 17835,15489 17840,15467 17848,15444 17852,15418 17852,15388 17852,15358 17847,15332 17837,15308 17831,15289 17823,15274 17811,15262 17799,15250 17784,15245 17767,15245 17750,15245 17736,15250 17724,15262 17712,15274 17703,15290 17697,15310 17689,15333 17685,15359 17685,15388 Z M 17906,15604 C 17935,15623 17956,15651 17970,15689 17988,15734 17997,15785 17997,15842 17997,15892 17991,15937 17978,15979 17961,16030 17934,16071 17897,16100 17861,16130 17817,16144 17767,16144 17718,16144 17675,16130 17638,16101 17602,16072 17574,16031 17557,15979 17545,15936 17539,15891 17539,15842 17539,15785 17547,15737 17562,15696 17575,15656 17598,15626 17631,15606 17634,15603 17634,15600 17631,15597 17601,15576 17578,15547 17563,15512 17547,15470 17539,15424 17539,15372 17539,15317 17547,15271 17563,15233 17580,15191 17608,15159 17643,15134 17679,15110 17720,15099 17767,15099 17813,15099 17854,15110 17890,15133 17926,15156 17952,15189 17970,15233 17988,15271 17997,15318 17997,15374 17997,15428 17989,15473 17972,15510 17956,15546 17935,15574 17906,15594 17901,15598 17901,15602 17906,15604 Z"/>
       </g>
      </g>
      <g class="com.sun.star.drawing.ClosedBezierShape">
       <g id="id96">
        <rect class="BoundingBox" stroke="none" fill="none" x="18486" y="15116" width="504" height="1030"/>
        <path fill="rgb(13,13,13)" stroke="none" d="M 18989,15770 L 18989,15815 18989,15859 C 18989,15883 18989,15901 18988,15913 18983,15982 18958,16038 18913,16080 18869,16123 18812,16144 18742,16144 18671,16144 18613,16123 18567,16080 18521,16038 18495,15982 18490,15913 18488,15886 18486,15859 18486,15831 18486,15820 18492,15814 18502,15814 L 18619,15814 C 18629,15814 18635,15820 18635,15831 18635,15859 18635,15879 18637,15891 18641,15925 18653,15951 18671,15970 18689,15990 18713,15999 18742,15999 18770,15999 18794,15989 18814,15969 18833,15950 18845,15924 18849,15891 18850,15876 18850,15859 18849,15839 18849,15819 18849,15806 18849,15798 18849,15790 18849,15776 18849,15754 18850,15733 18850,15716 18849,15704 18845,15672 18833,15646 18814,15626 18794,15606 18770,15596 18742,15596 18726,15596 18713,15601 18702,15611 18698,15614 18695,15615 18692,15615 18688,15615 18684,15613 18680,15609 L 18623,15540 C 18616,15530 18616,15522 18622,15515 L 18809,15268 C 18813,15262 18812,15260 18805,15260 L 18513,15260 C 18509,15260 18505,15258 18502,15254 18499,15251 18498,15247 18498,15242 L 18498,15133 C 18498,15129 18499,15124 18502,15121 18505,15118 18509,15116 18513,15116 L 18969,15116 C 18973,15116 18977,15118 18980,15121 18983,15124 18984,15129 18984,15133 L 18984,15248 C 18984,15258 18982,15265 18978,15270 L 18827,15480 C 18824,15484 18826,15487 18831,15489 18874,15499 18910,15527 18939,15571 18967,15615 18984,15664 18988,15718 18989,15729 18989,15746 18989,15770 Z"/>
       </g>
      </g>
     </g>
    </g>
   </g>
  </g>
 </g>
</svg>