<!DOCTYPE svg PUBLIC "-//W3C//DTD SVG 1.1//EN" "http://www.w3.org/Graphics/SVG/1.1/DTD/svg11.dtd">
<!-- Uploaded to: SVG Repo, www.svgrepo.com, Transformed by: SVG Repo Mixer Tools -->
<svg fill="#ffffff" version="1.1" id="Capa_1" xmlns="http://www.w3.org/2000/svg" xmlns:xlink="http://www.w3.org/1999/xlink" width="800px" height="800px" viewBox="0 0 190.049 190.048" xml:space="preserve">
<g id="SVGRepo_bgCarrier" stroke-width="0"/>
<g id="SVGRepo_tracerCarrier" stroke-linecap="round" stroke-linejoin="round"/>
<g id="SVGRepo_iconCarrier"> <g> <g> <path d="M137.806,55.259c0.164,0.908,0.312,1.822,0.449,2.741c19.469,1.283,35.021,9.3,35.021,18.676v37.797 c0,10.233-18.517,18.878-40.448,18.878H57.223c-21.931,0-40.449-8.64-40.449-18.878V76.677c0-10.137,18.18-18.698,39.84-18.861 c-0.175-0.885-0.343-1.788-0.509-2.685c-23.198,0.304-42.031,9.88-42.031,21.551v37.805v53.985 c0,11.852,19.438,21.576,43.149,21.576h75.604c23.706,0,43.148-9.713,43.148-21.576v-53.985V76.682 C175.976,65.664,159.19,56.51,137.806,55.259z"/> <path d="M30.21,76.682v37.805c0,7.43,12.144,13.504,27.013,13.504h75.604c14.867,0,27.011-6.074,27.011-13.504V76.682 c0-6.394-8.997-11.75-20.959-13.141c0.598,8.187-0.323,17.029-4.695,26.712c8.24,0.14,16.121,1.491,22.961,4.014v20.221 c0,5.109-9.992,10.8-24.317,10.8H57.223c-14.334,0-24.316-5.69-24.316-10.8V94.266c7.223-2.662,15.581-4.068,24.316-4.068h4.107 c-0.049-6.328-1.658-17.724-3.138-24.711c-0.161-0.763-0.322-1.541-0.488-2.32h-0.481C42.354,63.167,30.21,69.246,30.21,76.682z"/> <path d="M68.295,105.49c-4.314-2.331-11.094-3.245-15.442-2.068l-7.207,1.947c-0.743,0.202-1.187,0.975-0.984,1.719 c0.199,0.755,0.974,1.193,1.718,0.99l7.207-1.953c3.614-0.963,9.737-0.132,13.375,1.827c4.337,2.353,11.396,2.353,15.737,0 c3.549-1.915,9.539-1.915,13.072,0c4.408,2.398,11.33,2.398,15.746,0c3.548-1.921,9.532-1.921,13.073,0 c3.036,1.642,7.307,2.582,11.08,2.582c1.587,0,3.081-0.164,4.366-0.514l7.207-1.948c0.749-0.202,1.188-0.968,0.991-1.718 c-0.209-0.744-0.962-1.182-1.724-0.985l-7.208,1.948c-3.61,0.964-9.739,0.138-13.373-1.827c-4.333-2.348-11.397-2.354-15.735,0 c-3.548,1.915-9.543,1.915-13.077,0c-4.404-2.386-11.323-2.386-15.745,0C77.828,107.41,71.835,107.405,68.295,105.49z"/> <path d="M146.513,114.169l-7.208,1.946c-3.622,0.974-9.739,0.137-13.378-1.828c-4.338-2.353-11.402-2.353-15.743,0 c-3.55,1.922-9.53,1.922-13.076,0c-4.404-2.386-11.323-2.386-15.745,0c-3.539,1.922-9.532,1.918-13.071,0 c-4.316-2.33-11.089-3.237-15.443-2.068l-7.207,1.95c-0.744,0.201-1.186,0.967-0.985,1.719c0.201,0.753,0.975,1.181,1.718,0.984 l7.202-1.95c3.619-0.973,9.737-0.142,13.382,1.834c4.335,2.348,11.395,2.348,15.737,0c3.548-1.915,9.537-1.915,13.072,0 c4.413,2.391,11.324,2.391,15.746,0c3.54-1.92,9.533-1.91,13.072,0c3.036,1.644,7.299,2.577,11.075,2.577 c1.589,0,3.087-0.164,4.366-0.509l7.201-1.952c0.745-0.199,1.189-0.965,0.985-1.714 C148.027,114.409,147.245,113.959,146.513,114.169z"/> <path d="M72.097,90.365c16.276-28.123-4.704-45.981,0-77.224C54.443,31.439,75.876,72.507,72.097,90.365z"/> <path d="M96.835,77.228c16.271-28.125-4.709-45.982,0-77.228C79.182,18.301,100.607,59.361,96.835,77.228z"/> <path d="M121.57,90.365c16.273-28.123-4.706-45.981,0-77.224C103.912,31.439,125.353,72.507,121.57,90.365z"/> </g> </g> </g>
</svg>